<?xml version="1.0" encoding="utf-8"?>
<!-- Generator: Adobe Illustrator 27.5.0, SVG Export Plug-In . SVG Version: 6.00 Build 0)  -->
<svg version="1.1" xmlns="http://www.w3.org/2000/svg" xmlns:xlink="http://www.w3.org/1999/xlink" x="0px" y="0px"
	 viewBox="0 0 750 500" style="enable-background:new 0 0 750 500;" xml:space="preserve">
<g id="Background_Complete">
	<g>
		<g>
			<g>
				<path style="fill:#F5F5F5;" d="M600.417,237.977c0.431-9.802-5.286-18.254-17.576-22.541
					c-8.359-2.916-20.759-0.664-26.149,6.359c-3.863-11.244-19.765-16.128-29.274-8.99c2.293-19.713-6.497-40.669-22.969-51.739
					c-16.472-11.07-40.071-10.97-55.676,1.292c-15.606,12.262-21.108,36.206-11.323,53.472c-7.226,2.841-9.202,14.006-3.39,19.155
					c-19.966-1.673-54.352,1.363-54.352,9.534l297.833-1.442C673.401,232.501,638.707,228.174,600.417,237.977z"/>
			</g>
		</g>
		<g>
			<g>
				<path style="fill:#FFFFFF;" d="M504.673,206.317c6.578,2.652,11.521,8.993,12.488,16.02c4.261-2.037,9.382-2.195,13.76-0.423
					c4.378,1.772,7.948,5.446,9.592,9.874c-2.699-4.035-7.987-7.629-12.799-8.277c-6.944-0.935-11.634,1.974-13.85,5.919
					c0.214-7.041-3.346-14.087-9.143-18.09c-5.796-4.003-13.646-4.838-20.155-2.144
					C490.136,204.805,498.096,203.665,504.673,206.317z"/>
			</g>
		</g>
	</g>
	<g>
		<g>
			<g>
				<path style="fill:#F5F5F5;" d="M179.303,130.647c-0.43-9.802,5.286-18.254,17.576-22.541c8.359-2.916,20.759-0.664,26.149,6.359
					c3.863-11.244,19.765-16.128,29.274-8.99c-2.293-19.713,6.497-40.67,22.969-51.739c16.473-11.07,40.071-10.97,55.676,1.292
					c15.606,12.262,21.108,36.206,11.323,53.472c7.226,2.842,9.202,14.006,3.39,19.155c19.966-1.673,54.352,1.362,54.352,9.534
					l-297.833-1.442C106.319,125.172,141.014,120.845,179.303,130.647z"/>
			</g>
		</g>
		<g>
			<g>
				<path style="fill:#FFFFFF;" d="M275.047,98.988c-6.578,2.652-11.521,8.993-12.488,16.02c-4.261-2.037-9.382-2.195-13.76-0.423
					c-4.378,1.772-7.948,5.446-9.592,9.874c2.699-4.035,7.988-7.629,12.799-8.277c6.943-0.935,11.634,1.975,13.85,5.919
					c-0.215-7.041,3.346-14.087,9.143-18.09c5.796-4.003,13.646-4.838,20.155-2.144C289.584,97.475,281.625,96.336,275.047,98.988z"
					/>
			</g>
		</g>
	</g>
	<g>
		<g>
			<g>
				<polygon style="fill:#E0E0E0;" points="482.092,55.849 465.803,87.19 481.711,87.19 473.726,109.323 493.582,78.344 
					477.912,78.344 				"/>
			</g>
		</g>
	</g>
	<g>
		<g>
			<g>
				<polygon style="fill:#E0E0E0;" points="150.676,194.58 137.543,219.849 150.369,219.849 143.931,237.694 159.94,212.717 
					147.306,212.717 				"/>
			</g>
		</g>
	</g>
	<g>
		<g>
			<g>
				<g>
					<path style="fill:#E0E0E0;" d="M405.538,63.508c0.027-0.095,0.919,0.264,2.402,0.214c1.453-0.032,3.561-0.612,5.106-2.245
						c1.531-1.647,1.974-3.789,1.912-5.241c-0.046-1.484-0.462-2.351-0.369-2.383c0.029-0.013,0.159,0.187,0.324,0.585
						c0.167,0.397,0.339,1.004,0.412,1.777c0.161,1.518-0.241,3.831-1.9,5.619c-1.676,1.77-3.959,2.321-5.484,2.258
						c-0.776-0.023-1.393-0.156-1.8-0.297C405.735,63.655,405.527,63.538,405.538,63.508z"/>
				</g>
			</g>
		</g>
		<g>
			<g>
				<g>
					<path style="fill:#E0E0E0;" d="M419.323,54.072c0.095,0.027-0.264,0.919-0.214,2.402c0.032,1.453,0.612,3.561,2.245,5.106
						c1.647,1.531,3.789,1.974,5.241,1.912c1.484-0.046,2.351-0.462,2.383-0.369c0.013,0.028-0.187,0.159-0.585,0.324
						c-0.397,0.167-1.004,0.339-1.777,0.412c-1.518,0.161-3.831-0.24-5.619-1.9c-1.77-1.676-2.321-3.959-2.258-5.484
						c0.023-0.776,0.156-1.393,0.297-1.8C419.177,54.269,419.294,54.061,419.323,54.072z"/>
				</g>
			</g>
		</g>
		<g>
			<g>
				<g>
					<path style="fill:#E0E0E0;" d="M428.979,68.131c-0.027,0.095-0.919-0.264-2.402-0.215c-1.453,0.032-3.561,0.612-5.106,2.245
						c-1.531,1.647-1.974,3.789-1.912,5.241c0.046,1.484,0.462,2.351,0.369,2.383c-0.029,0.013-0.159-0.187-0.324-0.585
						c-0.167-0.397-0.339-1.004-0.412-1.777c-0.161-1.518,0.241-3.831,1.9-5.619c1.676-1.77,3.959-2.321,5.484-2.257
						c0.776,0.023,1.393,0.156,1.8,0.297C428.782,67.984,428.99,68.101,428.979,68.131z"/>
				</g>
			</g>
		</g>
		<g>
			<g>
				<g>
					<path style="fill:#E0E0E0;" d="M415.193,77.567c-0.095-0.027,0.264-0.919,0.215-2.402c-0.032-1.453-0.612-3.561-2.246-5.106
						c-1.647-1.531-3.789-1.974-5.241-1.912c-1.484,0.046-2.351,0.462-2.383,0.369c-0.013-0.029,0.187-0.159,0.585-0.324
						c0.397-0.167,1.004-0.339,1.777-0.412c1.518-0.161,3.831,0.241,5.619,1.9c1.77,1.676,2.321,3.959,2.258,5.484
						c-0.023,0.776-0.156,1.393-0.297,1.8C415.34,77.37,415.222,77.578,415.193,77.567z"/>
				</g>
			</g>
		</g>
	</g>
	<g>
		<g>
			<g>
				<g>
					<path style="fill:#E0E0E0;" d="M488.802,133.501c0.027-0.079,0.44,0.046,1.093-0.003c0.642-0.04,1.554-0.313,2.222-1.019
						c0.662-0.712,0.875-1.64,0.874-2.283c0.007-0.655-0.145-1.059-0.068-1.091c0.051-0.03,0.34,0.34,0.435,1.069
						c0.1,0.709-0.071,1.809-0.862,2.661c-0.799,0.843-1.885,1.086-2.599,1.031C489.164,133.818,488.776,133.553,488.802,133.501z"
						/>
				</g>
			</g>
		</g>
		<g>
			<g>
				<g>
					<path style="fill:#E0E0E0;" d="M495.079,129.204c0.079,0.027-0.046,0.44,0.003,1.093c0.04,0.642,0.313,1.554,1.019,2.222
						c0.712,0.662,1.64,0.875,2.283,0.874c0.655,0.007,1.059-0.145,1.091-0.068c0.03,0.051-0.34,0.34-1.069,0.435
						c-0.709,0.101-1.809-0.071-2.661-0.862c-0.843-0.799-1.086-1.885-1.031-2.599C494.761,129.566,495.026,129.178,495.079,129.204
						z"/>
				</g>
			</g>
		</g>
		<g>
			<g>
				<g>
					<path style="fill:#E0E0E0;" d="M499.474,135.605c-0.026,0.079-0.44-0.047-1.093,0.003c-0.642,0.04-1.554,0.313-2.222,1.019
						c-0.662,0.712-0.875,1.64-0.874,2.283c-0.007,0.655,0.145,1.059,0.068,1.091c-0.051,0.03-0.34-0.34-0.435-1.07
						c-0.1-0.709,0.071-1.809,0.862-2.661c0.799-0.843,1.885-1.086,2.599-1.031C499.113,135.288,499.501,135.553,499.474,135.605z"
						/>
				</g>
			</g>
		</g>
		<g>
			<g>
				<g>
					<path style="fill:#E0E0E0;" d="M493.198,139.901c-0.079-0.027,0.046-0.44-0.003-1.093c-0.04-0.642-0.313-1.554-1.019-2.222
						c-0.712-0.662-1.64-0.875-2.283-0.874c-0.655-0.007-1.059,0.145-1.091,0.068c-0.03-0.051,0.34-0.34,1.069-0.435
						c0.709-0.1,1.809,0.071,2.661,0.862c0.843,0.799,1.086,1.885,1.031,2.599C493.516,139.54,493.251,139.928,493.198,139.901z"/>
				</g>
			</g>
		</g>
	</g>
	<g>
		<g>
			<g>
				<g>
					<path style="fill:#E0E0E0;" d="M64.037,147.981c0.027-0.095,0.933,0.271,2.441,0.221c1.477-0.031,3.62-0.621,5.191-2.281
						c1.556-1.675,2.006-3.852,1.943-5.328c-0.048-1.508-0.471-2.389-0.378-2.421c0.028-0.013,0.161,0.19,0.328,0.595
						c0.169,0.403,0.344,1.02,0.417,1.805c0.163,1.541-0.246,3.891-1.93,5.705c-1.702,1.798-4.02,2.357-5.568,2.294
						c-0.788-0.023-1.415-0.158-1.828-0.3C64.238,148.13,64.026,148.011,64.037,147.981z"/>
				</g>
			</g>
		</g>
		<g>
			<g>
				<g>
					<path style="fill:#E0E0E0;" d="M78.043,138.394c0.095,0.027-0.271,0.933-0.221,2.441c0.032,1.477,0.621,3.62,2.282,5.191
						c1.675,1.556,3.852,2.006,5.328,1.943c1.508-0.048,2.389-0.471,2.421-0.378c0.013,0.029-0.19,0.161-0.595,0.328
						c-0.403,0.169-1.02,0.344-1.805,0.417c-1.541,0.163-3.891-0.245-5.705-1.93c-1.798-1.702-2.357-4.02-2.294-5.568
						c0.023-0.788,0.158-1.415,0.3-1.828C77.895,138.594,78.014,138.383,78.043,138.394z"/>
				</g>
			</g>
		</g>
		<g>
			<g>
				<g>
					<path style="fill:#E0E0E0;" d="M87.853,152.678c-0.027,0.095-0.933-0.271-2.441-0.221c-1.477,0.032-3.62,0.621-5.191,2.282
						c-1.556,1.675-2.006,3.852-1.943,5.328c0.048,1.508,0.471,2.389,0.378,2.421c-0.028,0.013-0.161-0.191-0.328-0.595
						c-0.169-0.403-0.344-1.02-0.417-1.805c-0.163-1.541,0.246-3.891,1.93-5.705c1.702-1.798,4.02-2.357,5.568-2.294
						c0.788,0.023,1.415,0.158,1.828,0.3C87.652,152.529,87.864,152.648,87.853,152.678z"/>
				</g>
			</g>
		</g>
		<g>
			<g>
				<g>
					<path style="fill:#E0E0E0;" d="M73.847,162.265c-0.095-0.027,0.271-0.933,0.221-2.441c-0.032-1.477-0.621-3.62-2.282-5.191
						c-1.675-1.556-3.852-2.006-5.328-1.943c-1.508,0.048-2.389,0.471-2.421,0.378c-0.013-0.028,0.19-0.161,0.595-0.328
						c0.403-0.169,1.02-0.344,1.805-0.417c1.541-0.163,3.891,0.245,5.705,1.93c1.798,1.702,2.357,4.02,2.294,5.568
						c-0.023,0.788-0.158,1.415-0.3,1.828C73.995,162.065,73.876,162.276,73.847,162.265z"/>
				</g>
			</g>
		</g>
	</g>
	<g>
		<g>
			<g>
				<g>
					<path style="fill:#E0E0E0;" d="M238.932,172.612c0.027-0.079,0.44,0.046,1.093-0.003c0.642-0.04,1.554-0.313,2.222-1.019
						c0.662-0.712,0.875-1.64,0.874-2.283c0.007-0.655-0.145-1.059-0.068-1.091c0.051-0.03,0.34,0.34,0.435,1.069
						c0.101,0.709-0.071,1.809-0.862,2.661c-0.799,0.843-1.885,1.086-2.599,1.031C239.293,172.929,238.906,172.664,238.932,172.612z
						"/>
				</g>
			</g>
		</g>
		<g>
			<g>
				<g>
					<path style="fill:#E0E0E0;" d="M245.208,168.315c0.079,0.027-0.046,0.44,0.003,1.093c0.04,0.642,0.313,1.554,1.019,2.222
						c0.712,0.662,1.64,0.875,2.283,0.874c0.655,0.007,1.059-0.145,1.091-0.068c0.03,0.051-0.34,0.34-1.069,0.435
						c-0.709,0.101-1.809-0.071-2.661-0.862c-0.843-0.799-1.086-1.886-1.031-2.599C244.891,168.676,245.156,168.289,245.208,168.315
						z"/>
				</g>
			</g>
		</g>
		<g>
			<g>
				<g>
					<path style="fill:#E0E0E0;" d="M249.604,174.716c-0.027,0.079-0.44-0.047-1.093,0.003c-0.642,0.04-1.554,0.313-2.222,1.019
						c-0.662,0.712-0.875,1.64-0.874,2.283c-0.007,0.655,0.145,1.059,0.068,1.091c-0.051,0.03-0.34-0.34-0.435-1.069
						c-0.1-0.709,0.071-1.809,0.862-2.661c0.799-0.843,1.886-1.086,2.6-1.031C249.243,174.398,249.631,174.663,249.604,174.716z"/>
				</g>
			</g>
		</g>
		<g>
			<g>
				<g>
					<path style="fill:#E0E0E0;" d="M243.328,179.012c-0.079-0.027,0.046-0.44-0.003-1.093c-0.04-0.642-0.313-1.554-1.019-2.222
						c-0.712-0.662-1.64-0.875-2.283-0.874c-0.655-0.007-1.059,0.145-1.091,0.068c-0.03-0.051,0.34-0.34,1.069-0.435
						c0.709-0.101,1.809,0.071,2.661,0.862c0.843,0.799,1.086,1.885,1.031,2.599C243.646,178.651,243.38,179.039,243.328,179.012z"
						/>
				</g>
			</g>
		</g>
	</g>
	<g>
		<g>
			<g>
				<g>
					<path style="fill:#E0E0E0;" d="M643.751,216.241c0.027-0.079,0.44,0.046,1.093-0.003c0.642-0.04,1.554-0.313,2.222-1.019
						c0.662-0.712,0.875-1.64,0.874-2.283c0.007-0.655-0.145-1.059-0.068-1.091c0.051-0.03,0.34,0.34,0.435,1.069
						c0.101,0.709-0.071,1.809-0.862,2.661c-0.799,0.843-1.885,1.086-2.599,1.031C644.112,216.558,643.725,216.293,643.751,216.241z
						"/>
				</g>
			</g>
		</g>
		<g>
			<g>
				<g>
					<path style="fill:#E0E0E0;" d="M650.027,211.945c0.079,0.026-0.047,0.44,0.003,1.093c0.04,0.642,0.313,1.554,1.019,2.222
						c0.712,0.662,1.64,0.875,2.283,0.874c0.655,0.007,1.059-0.145,1.091-0.068c0.03,0.051-0.34,0.34-1.069,0.435
						c-0.709,0.1-1.809-0.071-2.661-0.862c-0.843-0.799-1.086-1.886-1.031-2.6C649.71,212.306,649.975,211.918,650.027,211.945z"/>
				</g>
			</g>
		</g>
		<g>
			<g>
				<g>
					<path style="fill:#E0E0E0;" d="M654.423,218.345c-0.026,0.079-0.44-0.046-1.093,0.003c-0.642,0.04-1.554,0.313-2.222,1.019
						c-0.662,0.712-0.875,1.64-0.874,2.283c-0.007,0.655,0.145,1.059,0.068,1.091c-0.051,0.03-0.34-0.34-0.435-1.069
						c-0.1-0.709,0.071-1.809,0.862-2.661c0.799-0.843,1.885-1.086,2.599-1.031C654.062,218.028,654.45,218.293,654.423,218.345z"/>
				</g>
			</g>
		</g>
		<g>
			<g>
				<g>
					<path style="fill:#E0E0E0;" d="M648.147,222.641c-0.079-0.027,0.047-0.44-0.003-1.093c-0.04-0.642-0.313-1.554-1.019-2.222
						c-0.712-0.662-1.64-0.875-2.283-0.874c-0.655-0.007-1.059,0.145-1.091,0.068c-0.03-0.051,0.34-0.34,1.07-0.435
						c0.709-0.101,1.809,0.071,2.661,0.862c0.843,0.799,1.086,1.886,1.031,2.599C648.464,222.28,648.199,222.668,648.147,222.641z"
						/>
				</g>
			</g>
		</g>
	</g>
	<g>
		<g>
			<g>
				<g>
					<g>
						<path style="fill:#F5F5F5;" d="M693.272,184.118c-1.04-2.776-2.1-5.59-3.849-7.984c-1.749-2.393-4.304-4.354-7.246-4.714
							c-2.942-0.36-6.202,1.228-7.161,4.033c-0.422-6.32-1.318-12.805-4.482-18.293c-3.164-5.488-9.067-9.799-15.39-9.412
							c-5.962,0.365-11.066,4.793-13.902,10.049c-2.836,5.257-3.81,11.286-4.741,17.186c-2.26-2.773-7.032-1.902-9.39,0.788
							c-2.358,2.69-2.956,6.449-3.457,9.991h71.1L693.272,184.118z"/>
					</g>
				</g>
			</g>
		</g>
	</g>
	<g>
		<g>
			<g>
				<g>
					<g>
						<path style="fill:#F5F5F5;" d="M143.824,90.132c-1.218-2.776-2.46-5.59-4.509-7.983c-2.048-2.393-5.042-4.354-8.489-4.714
							c-3.447-0.36-7.266,1.228-8.388,4.033c-0.495-6.321-1.544-12.805-5.25-18.293c-3.706-5.488-10.622-9.799-18.029-9.412
							c-6.984,0.365-12.963,4.793-16.286,10.049c-3.323,5.256-4.463,11.286-5.554,17.186c-2.647-2.773-8.237-1.902-11,0.788
							c-2.763,2.69-3.463,6.449-4.05,9.991h83.293L143.824,90.132z"/>
					</g>
				</g>
			</g>
		</g>
	</g>
	<g>
		<g>
			<g>
				<g>
					<path style="fill:#E0E0E0;" d="M646.897,84.905c0.026-0.079,0.44,0.047,1.093-0.003c0.642-0.04,1.554-0.313,2.222-1.019
						c0.662-0.712,0.875-1.64,0.874-2.283c0.007-0.655-0.145-1.059-0.068-1.091c0.051-0.03,0.34,0.34,0.435,1.069
						c0.1,0.709-0.071,1.809-0.862,2.661c-0.799,0.843-1.885,1.086-2.599,1.031C647.258,85.223,646.871,84.957,646.897,84.905z"/>
				</g>
			</g>
		</g>
		<g>
			<g>
				<g>
					<path style="fill:#E0E0E0;" d="M653.173,80.609c0.079,0.026-0.046,0.44,0.003,1.093c0.04,0.642,0.313,1.554,1.019,2.222
						c0.712,0.662,1.64,0.875,2.283,0.874c0.655,0.007,1.059-0.145,1.091-0.068c0.03,0.051-0.34,0.34-1.069,0.435
						c-0.709,0.101-1.809-0.071-2.661-0.862c-0.843-0.799-1.086-1.885-1.031-2.599C652.856,80.97,653.121,80.582,653.173,80.609z"/>
				</g>
			</g>
		</g>
		<g>
			<g>
				<g>
					<path style="fill:#E0E0E0;" d="M657.569,87.009c-0.026,0.079-0.44-0.046-1.093,0.003c-0.642,0.04-1.554,0.313-2.222,1.019
						c-0.662,0.712-0.875,1.64-0.874,2.283c-0.007,0.655,0.145,1.059,0.068,1.091c-0.051,0.03-0.34-0.34-0.435-1.069
						c-0.101-0.709,0.071-1.809,0.862-2.661c0.799-0.843,1.886-1.086,2.599-1.031C657.208,86.692,657.595,86.957,657.569,87.009z"/>
				</g>
			</g>
		</g>
		<g>
			<g>
				<g>
					<path style="fill:#E0E0E0;" d="M651.293,91.306c-0.079-0.027,0.046-0.44-0.003-1.093c-0.04-0.642-0.313-1.554-1.019-2.222
						c-0.712-0.662-1.64-0.875-2.283-0.874c-0.655-0.007-1.059,0.145-1.091,0.068c-0.03-0.051,0.34-0.34,1.069-0.435
						c0.709-0.101,1.809,0.071,2.661,0.862c0.843,0.799,1.086,1.886,1.031,2.599C651.61,90.945,651.345,91.332,651.293,91.306z"/>
				</g>
			</g>
		</g>
	</g>
</g>
<g id="Background_Simple" style="display:none;">
	<g style="display:inline;">
		<g>
			<path style="fill:#F5F5F5;" d="M252.693,88.101C236.836,69.242,215.933,60.72,187.837,56.5
				c-24.238-3.64-62.886-1.105-88.24,8.483c-15.439,4.535-35.689,22.951-39.938,38.471c-4.249,15.52,0.086,33.107,11.061,44.874
				c10.976,11.767,28.218,17.314,43.996,14.153c16.399-3.285,29.677-14.788,43.462-24.259s30.817-17.454,46.79-12.497
				c6.982,2.167,12.982,6.613,19.282,10.322c6.3,3.71,13.468,6.806,20.713,5.823c10.973-1.49,18.939-12.525,19.566-23.581
				C265.157,107.234,259.82,96.576,252.693,88.101z"/>
		</g>
	</g>
	<g style="display:inline;">
		<g>
			<path style="fill:#F5F5F5;" d="M494.895,249.406c18.505,23.554,42.899,34.198,75.685,39.468
				c28.284,4.547,73.386,1.381,102.974-10.595c18.017-5.663,41.648-28.665,46.607-48.048c4.959-19.384-0.1-41.348-12.908-56.045
				c-12.808-14.696-32.93-21.624-51.342-17.677c-19.137,4.103-34.633,18.47-50.719,30.299
				c-16.086,11.829-35.963,21.799-54.603,15.608c-8.148-2.707-15.15-8.259-22.501-12.892c-7.351-4.633-15.717-8.501-24.171-7.273
				c-12.805,1.86-22.101,15.643-22.833,29.451C480.35,225.51,486.579,238.821,494.895,249.406z"/>
		</g>
	</g>
</g>
<g id="Floor">
	<g>
		<g>
			<g>
				<path style="fill:#263238;" d="M728.782,315.695c0,0.144-155.844,0.26-348.043,0.26c-192.266,0-348.077-0.117-348.077-0.26
					c0-0.144,155.811-0.26,348.077-0.26C572.938,315.435,728.782,315.551,728.782,315.695z"/>
			</g>
		</g>
	</g>
</g>
<g id="Plants">
	<g>
		<g>
			<g>
				<g>
					<path style="fill:#263238;" d="M41.306,366.749c-0.119,0.08-1.496-1.759-3.074-4.107c-1.579-2.349-2.761-4.318-2.642-4.398
						c0.119-0.08,1.495,1.758,3.074,4.107C40.243,364.699,41.426,366.668,41.306,366.749z"/>
				</g>
			</g>
		</g>
		<g>
			<g>
				<g>
					<path style="fill:#263238;" d="M43.036,366.138c-0.139,0.036-0.823-2.163-1.528-4.909c-0.705-2.748-1.163-5.003-1.023-5.039
						c0.139-0.036,0.823,2.162,1.528,4.91C42.717,363.846,43.176,366.102,43.036,366.138z"/>
				</g>
			</g>
		</g>
		<g>
			<g>
				<g>
					<path style="fill:#263238;" d="M48.096,356.104c0.137,0.08-1.04,2.095-1.839,4.823c-0.822,2.723-0.937,5.053-1.096,5.045
						c-0.128,0.011-0.248-2.389,0.596-5.193C46.583,357.97,47.994,356.025,48.096,356.104z"/>
				</g>
			</g>
		</g>
	</g>
	<g>
		<g>
			<g>
				<g>
					<path style="fill:#263238;" d="M146.407,471.098c-0.119,0.08-1.496-1.759-3.074-4.107c-1.579-2.349-2.761-4.318-2.642-4.398
						c0.119-0.08,1.495,1.758,3.074,4.107C145.344,469.048,146.526,471.017,146.407,471.098z"/>
				</g>
			</g>
		</g>
		<g>
			<g>
				<g>
					<path style="fill:#263238;" d="M148.137,470.487c-0.139,0.036-0.823-2.163-1.528-4.909c-0.705-2.748-1.163-5.003-1.023-5.039
						c0.139-0.036,0.823,2.162,1.528,4.91C147.818,468.195,148.276,470.451,148.137,470.487z"/>
				</g>
			</g>
		</g>
		<g>
			<g>
				<g>
					<path style="fill:#263238;" d="M153.197,460.453c0.137,0.08-1.04,2.095-1.839,4.823c-0.822,2.723-0.937,5.053-1.095,5.045
						c-0.129,0.011-0.248-2.389,0.596-5.193C151.684,462.319,153.095,460.374,153.197,460.453z"/>
				</g>
			</g>
		</g>
	</g>
	<g>
		<g>
			<g>
				<g>
					<path style="fill:#263238;" d="M242.538,341.982c-0.119,0.08-1.496-1.759-3.074-4.107c-1.579-2.349-2.761-4.318-2.642-4.398
						c0.119-0.08,1.495,1.758,3.074,4.107C241.475,339.932,242.658,341.901,242.538,341.982z"/>
				</g>
			</g>
		</g>
		<g>
			<g>
				<g>
					<path style="fill:#263238;" d="M244.268,341.371c-0.139,0.036-0.823-2.163-1.528-4.909c-0.705-2.748-1.163-5.004-1.023-5.039
						c0.139-0.036,0.823,2.162,1.528,4.91C243.949,339.079,244.408,341.335,244.268,341.371z"/>
				</g>
			</g>
		</g>
		<g>
			<g>
				<g>
					<path style="fill:#263238;" d="M249.328,331.337c0.137,0.08-1.04,2.095-1.839,4.823c-0.822,2.723-0.937,5.053-1.095,5.045
						c-0.129,0.011-0.248-2.389,0.596-5.193C247.815,333.203,249.226,331.258,249.328,331.337z"/>
				</g>
			</g>
		</g>
	</g>
	<g>
		<g>
			<g>
				<g>
					<path style="fill:#263238;" d="M317.212,395.797c-0.119,0.08-1.496-1.759-3.074-4.107c-1.579-2.349-2.761-4.317-2.642-4.398
						c0.119-0.08,1.495,1.758,3.074,4.107C316.148,393.747,317.331,395.716,317.212,395.797z"/>
				</g>
			</g>
		</g>
		<g>
			<g>
				<g>
					<path style="fill:#263238;" d="M318.942,395.186c-0.139,0.036-0.823-2.163-1.528-4.909c-0.705-2.748-1.163-5.004-1.023-5.039
						c0.139-0.036,0.823,2.162,1.528,4.91C318.623,392.894,319.081,395.15,318.942,395.186z"/>
				</g>
			</g>
		</g>
		<g>
			<g>
				<g>
					<path style="fill:#263238;" d="M324.002,385.152c0.137,0.08-1.04,2.095-1.839,4.823c-0.822,2.723-0.937,5.053-1.095,5.045
						c-0.129,0.011-0.248-2.389,0.596-5.193C322.488,387.018,323.9,385.073,324.002,385.152z"/>
				</g>
			</g>
		</g>
	</g>
	<g>
		<g>
			<g>
				<g>
					<path style="fill:#263238;" d="M416.726,381.216c-0.119,0.08-1.496-1.759-3.074-4.107c-1.578-2.349-2.761-4.318-2.642-4.398
						c0.119-0.08,1.495,1.758,3.074,4.107C415.662,379.167,416.845,381.136,416.726,381.216z"/>
				</g>
			</g>
		</g>
		<g>
			<g>
				<g>
					<path style="fill:#263238;" d="M418.456,380.606c-0.139,0.036-0.823-2.163-1.528-4.909c-0.705-2.748-1.163-5.004-1.023-5.039
						c0.139-0.036,0.823,2.162,1.528,4.91C418.137,378.314,418.595,380.57,418.456,380.606z"/>
				</g>
			</g>
		</g>
		<g>
			<g>
				<g>
					<path style="fill:#263238;" d="M423.516,370.572c0.137,0.08-1.04,2.095-1.839,4.823c-0.822,2.723-0.937,5.053-1.096,5.045
						c-0.129,0.011-0.248-2.389,0.596-5.193C422.002,372.437,423.414,370.492,423.516,370.572z"/>
				</g>
			</g>
		</g>
	</g>
	<g>
		<g>
			<g>
				<g>
					<path style="fill:#263238;" d="M575.016,457.438c-0.119,0.08-1.496-1.759-3.074-4.107c-1.579-2.349-2.761-4.318-2.642-4.398
						c0.119-0.08,1.495,1.758,3.074,4.107C573.953,455.389,575.136,457.358,575.016,457.438z"/>
				</g>
			</g>
		</g>
		<g>
			<g>
				<g>
					<path style="fill:#263238;" d="M576.746,456.828c-0.139,0.036-0.823-2.163-1.528-4.909c-0.705-2.748-1.163-5.004-1.023-5.039
						c0.139-0.036,0.823,2.162,1.528,4.91C576.427,454.536,576.885,456.792,576.746,456.828z"/>
				</g>
			</g>
		</g>
		<g>
			<g>
				<g>
					<path style="fill:#263238;" d="M581.806,446.794c0.137,0.08-1.04,2.095-1.839,4.823c-0.822,2.723-0.937,5.053-1.095,5.045
						c-0.129,0.011-0.248-2.389,0.596-5.194C580.293,448.659,581.704,446.715,581.806,446.794z"/>
				</g>
			</g>
		</g>
	</g>
	<g>
		<g>
			<g>
				<g>
					<path style="fill:#263238;" d="M722.512,372.463c-0.119,0.08-1.496-1.759-3.074-4.107c-1.579-2.349-2.761-4.318-2.642-4.398
						c0.119-0.08,1.495,1.758,3.074,4.107C721.449,370.414,722.632,372.383,722.512,372.463z"/>
				</g>
			</g>
		</g>
		<g>
			<g>
				<g>
					<path style="fill:#263238;" d="M724.242,371.852c-0.139,0.036-0.823-2.163-1.528-4.909c-0.705-2.748-1.163-5.004-1.023-5.039
						c0.139-0.036,0.823,2.162,1.528,4.91C723.923,369.56,724.382,371.816,724.242,371.852z"/>
				</g>
			</g>
		</g>
		<g>
			<g>
				<g>
					<path style="fill:#263238;" d="M729.302,361.818c0.137,0.08-1.04,2.095-1.839,4.823c-0.822,2.723-0.937,5.053-1.096,5.045
						c-0.128,0.011-0.248-2.389,0.596-5.193C727.789,363.684,729.201,361.739,729.302,361.818z"/>
				</g>
			</g>
		</g>
	</g>
	<g>
		<g>
			<g>
				<g>
					<path style="fill:#263238;" d="M388.991,471.486c-0.119,0.08-1.496-1.759-3.074-4.107c-1.579-2.349-2.761-4.318-2.642-4.398
						c0.119-0.08,1.495,1.758,3.074,4.107C387.927,469.437,389.11,471.406,388.991,471.486z"/>
				</g>
			</g>
		</g>
		<g>
			<g>
				<g>
					<path style="fill:#263238;" d="M390.721,470.875c-0.139,0.036-0.823-2.163-1.528-4.909c-0.705-2.748-1.163-5.004-1.023-5.039
						c0.139-0.036,0.823,2.162,1.528,4.91C390.402,468.583,390.86,470.84,390.721,470.875z"/>
				</g>
			</g>
		</g>
		<g>
			<g>
				<g>
					<path style="fill:#263238;" d="M395.781,460.841c0.137,0.08-1.04,2.095-1.839,4.823c-0.822,2.723-0.937,5.053-1.095,5.045
						c-0.129,0.011-0.248-2.389,0.596-5.194C394.267,462.707,395.679,460.762,395.781,460.841z"/>
				</g>
			</g>
		</g>
	</g>
</g>
<g id="Electric_Towers">
	<g>
		<g>
			<g>
				<g>
					<path style="fill:none;stroke:#4E585D;stroke-width:0.05;stroke-miterlimit:10;" d="M227.914,226.923"/>
				</g>
			</g>
		</g>
		<g>
			<g>
				<g>
					<path style="fill:#263238;" d="M245.104,258.483c0,0-0.116,0.211-0.362,0.615c-0.254,0.413-0.622,1.01-1.105,1.793
						c-0.988,1.586-2.441,3.916-4.327,6.943c-3.804,6.067-9.35,14.914-16.352,26.082l-0.046,0.074l-0.088,0
						c-1.107-0.005-2.366-0.01-3.649-0.015l-0.186-0.001l0.024-0.185c2.326-17.948,5.284-40.779,8.669-66.896l0.005-0.042
						l0.02-0.038c1.398-2.618,2.941-5.508,4.506-8.439l0.068-0.126l0.143,0c1.194-0.001,2.533-0.001,3.88-0.002h0.144l0.069,0.127
						c1.422,2.625,2.986,5.512,4.569,8.434l0.022,0.04l0.006,0.046c2.604,20.222,5.451,42.327,8.414,65.339
						c0.095,0.737,0.189,1.473,0.283,2.203l0.038,0.294h-0.296c-1.192,0-2.376,0-3.558,0h-0.144l-0.077-0.122
						c-7.656-12.231-15.108-24.136-22.255-35.553l-0.237-0.378l0.446-0.009c7.14-0.146,14.106-0.288,20.889-0.427l-0.11,0.461
						c-6.645-3.537-13.082-6.964-19.293-10.269l-0.365-0.194l0.355-0.211c5.934-3.531,11.606-6.908,17.048-10.146l-0.021,0.359
						c-5.08-3.925-9.876-7.63-14.44-11.156l-0.465-0.36l0.588,0.001c4.53,0.005,8.837,0.01,12.956,0.015l0.559,0.001l-0.449,0.333
						c-5.237,3.88-9.999,7.409-14.364,10.643l-0.012-0.262c6.629,4.079,12.208,7.513,16.92,10.413l0.173,0.106l-0.177,0.097
						c-6.431,3.542-11.369,6.261-14.711,8.102c-1.662,0.907-2.925,1.597-3.784,2.066c-0.85,0.46-1.29,0.68-1.29,0.68
						s0.42-0.257,1.26-0.735c0.853-0.481,2.106-1.188,3.755-2.119c3.33-1.863,8.249-4.615,14.656-8.2l-0.004,0.203
						c-4.724-2.881-10.318-6.292-16.963-10.344l-0.2-0.122l0.188-0.14c4.356-3.247,9.108-6.79,14.333-10.686l0.11,0.333
						c-4.118,0.005-8.425,0.01-12.956,0.015l0.122-0.359c4.571,3.517,9.374,7.213,14.462,11.128l0.254,0.195l-0.275,0.164
						c-5.437,3.247-11.104,6.631-17.033,10.172l-0.01-0.405c6.214,3.299,12.656,6.719,19.305,10.248l0.831,0.441l-0.941,0.02
						c-6.783,0.144-13.749,0.292-20.889,0.443l0.209-0.387c7.151,11.415,14.607,23.317,22.267,35.545l-0.22-0.122
						c1.181,0,2.365,0,3.558,0l-0.258,0.293c-0.094-0.73-0.188-1.466-0.283-2.203c-2.953-23.013-5.79-45.119-8.386-65.342
						l0.028,0.085c-1.58-2.924-3.141-5.812-4.561-8.438l0.212,0.126c-1.347-0.001-2.686-0.001-3.88-0.002l0.211-0.126
						c-1.568,2.929-3.115,5.817-4.516,8.433l0.025-0.08c-3.438,26.11-6.443,48.935-8.806,66.878l-0.162-0.185
						c1.283,0.01,2.542,0.019,3.649,0.027l-0.134,0.074c7.055-11.135,12.644-19.956,16.476-26.004
						c1.917-3.007,3.393-5.323,4.397-6.899c0.499-0.773,0.878-1.363,1.141-1.77C244.964,258.679,245.104,258.483,245.104,258.483z"
						/>
				</g>
			</g>
		</g>
		<g>
			<g>
				<g>
					<path style="fill:#263238;" d="M230.517,226.923c0,0.144-2.477,0.26-5.531,0.26c-1.227,0-2.361-0.019-3.267-0.051l0.176-0.096
						c-0.788,1.131-1.334,1.834-1.406,1.787c-0.072-0.047,0.345-0.833,1.054-2.015l0.055-0.092l0.121-0.004
						c0.907-0.032,2.04-0.051,3.267-0.051C228.041,226.663,230.517,226.779,230.517,226.923z"/>
				</g>
			</g>
		</g>
		<g>
			<g>
				<g>
					<path style="fill:#263238;" d="M238.061,226.923c0-0.144,2.477-0.26,5.531-0.26c1.227,0,2.361,0.019,3.267,0.051l0.121,0.004
						l0.055,0.092c0.709,1.182,1.126,1.968,1.054,2.015c-0.072,0.047-0.618-0.656-1.406-1.787l0.176,0.096
						c-0.906,0.032-2.04,0.051-3.267,0.051C240.538,227.184,238.061,227.067,238.061,226.923z"/>
				</g>
			</g>
		</g>
	</g>
	<g>
		<g>
			<g>
				<g>
					<path style="fill:none;stroke:#4E585D;stroke-width:0.05;stroke-miterlimit:10;" d="M165.376,258.049"/>
				</g>
			</g>
		</g>
		<g>
			<g>
				<g>
					<path style="fill:#263238;" d="M174.779,275.311c0,0-0.058,0.119-0.189,0.342c-0.144,0.238-0.34,0.563-0.596,0.986
						c-0.544,0.882-1.332,2.158-2.351,3.808c-2.081,3.334-5.104,8.177-8.916,14.284l-0.046,0.074l-0.088,0
						c-0.605-0.002-1.294-0.004-1.996-0.006l-0.186,0l0.024-0.185c1.265-9.825,2.872-22.312,4.711-36.595l0.005-0.042l0.02-0.038
						c0.764-1.432,1.607-3.013,2.462-4.617l0.067-0.126l0.144,0c0.653-0.001,1.386-0.001,2.122-0.002l0.144,0l0.069,0.127
						c0.778,1.435,1.635,3.014,2.501,4.612l0.022,0.04l0.006,0.046c1.427,11.062,2.986,23.152,4.609,35.739
						c0.052,0.403,0.104,0.806,0.155,1.205l0.038,0.294l-0.296,0c-0.652,0-1.3,0-1.946,0h-0.144l-0.076-0.122
						c-4.187-6.691-8.262-13.203-12.17-19.449l-0.237-0.378l0.446-0.009c3.906-0.078,7.716-0.155,11.426-0.23l-0.11,0.461
						c-3.633-1.936-7.154-3.812-10.551-5.622l-0.365-0.194l0.355-0.211c3.246-1.929,6.35-3.774,9.328-5.544l-0.021,0.359
						c-2.777-2.149-5.398-4.177-7.894-6.108l-0.465-0.36l0.588,0.001c2.478,0.005,4.833,0.01,7.086,0.015l0.56,0.001l-0.449,0.332
						c-2.866,2.118-5.473,4.045-7.864,5.812l-0.012-0.262c3.619,2.236,6.668,4.119,9.246,5.712l0.173,0.107l-0.177,0.097
						c-3.513,1.922-6.216,3.401-8.059,4.409c-0.902,0.486-1.593,0.858-2.077,1.118c-0.467,0.248-0.713,0.36-0.713,0.36
						s0.225-0.149,0.682-0.415c0.477-0.273,1.158-0.662,2.047-1.171c1.831-1.031,4.515-2.543,8.004-4.508l-0.004,0.203
						c-2.59-1.573-5.652-3.434-9.288-5.642l-0.2-0.122l0.188-0.141c2.381-1.78,4.978-3.721,7.833-5.854l0.11,0.333
						c-2.253,0.005-4.609,0.01-7.086,0.015l0.122-0.359c2.502,1.922,5.131,3.941,7.915,6.081l0.254,0.195l-0.275,0.165
						c-2.973,1.778-6.072,3.631-9.313,5.57l-0.01-0.405c3.4,1.803,6.925,3.672,10.562,5.6l0.831,0.441l-0.941,0.02
						c-3.71,0.08-7.52,0.162-11.426,0.246l0.209-0.387c3.912,6.243,7.992,12.753,12.182,19.441l-0.22-0.122c0.646,0,1.294,0,1.946,0
						l-0.258,0.293c-0.051-0.399-0.103-0.802-0.155-1.205c-1.613-12.588-3.163-24.679-4.581-35.742l0.028,0.086
						c-0.864-1.599-1.717-3.18-2.493-4.617l0.212,0.126c-0.736-0.001-1.469-0.001-2.122-0.002l0.211-0.126
						c-0.859,1.602-1.705,3.181-2.472,4.612l0.026-0.08c-1.892,14.276-3.546,26.757-4.848,36.578l-0.162-0.185
						c0.702,0.006,1.39,0.012,1.996,0.018l-0.134,0.074c3.865-6.074,6.93-10.89,9.04-14.206c1.049-1.631,1.86-2.892,2.421-3.764
						c0.271-0.413,0.48-0.731,0.632-0.963C174.697,275.415,174.779,275.311,174.779,275.311z"/>
				</g>
			</g>
		</g>
		<g>
			<g>
				<g>
					<path style="fill:#263238;" d="M166.8,258.048c0,0.144-1.355,0.26-3.025,0.26c-0.671,0-1.291-0.019-1.787-0.051l0.176-0.096
						c-0.449,0.607-0.777,0.973-0.849,0.926c-0.072-0.047,0.127-0.495,0.497-1.154l0.049-0.088l0.127-0.008
						c0.496-0.032,1.116-0.051,1.787-0.051C165.446,257.788,166.8,257.905,166.8,258.048z"/>
				</g>
			</g>
		</g>
		<g>
			<g>
				<g>
					<path style="fill:#263238;" d="M170.927,258.049c0-0.144,1.355-0.26,3.025-0.26c0.671,0,1.291,0.019,1.787,0.051l0.127,0.008
						l0.049,0.088c0.37,0.658,0.569,1.107,0.497,1.154c-0.072,0.047-0.4-0.319-0.849-0.926l0.176,0.096
						c-0.496,0.032-1.116,0.051-1.787,0.051C172.282,258.309,170.927,258.192,170.927,258.049z"/>
				</g>
			</g>
		</g>
	</g>
	<g>
		<g>
			<g>
				<path style="fill:#263238;" d="M474.584,246.001c0,0-0.141,0.174-0.436,0.495c-0.31,0.333-0.749,0.805-1.321,1.42
					c-1.127,1.283-2.98,2.989-5.409,5.131c-4.93,4.196-12.636,9.645-22.936,14.961c-5.131,2.689-10.914,5.32-17.253,7.812
					c-6.34,2.486-13.244,4.831-20.659,6.763c-7.394,2.02-15.445,3.091-23.781,3.24c-8.343,0.109-16.972-0.548-25.732-1.695
					c-8.764-1.159-17.26-2.682-25.44-4.244c-4.089-0.786-8.111-1.525-12.034-2.36c-3.921-0.838-7.737-1.769-11.426-2.805
					c-7.375-2.072-14.248-4.558-20.419-7.458c-6.173-2.894-11.654-6.164-16.309-9.622c-9.37-6.887-15.331-14.374-18.741-19.852
					c-0.889-1.356-1.544-2.641-2.165-3.722c-0.551-1.119-1.042-2.054-1.392-2.831c-0.332-0.771-0.587-1.364-0.767-1.782
					c-0.17-0.402-0.245-0.613-0.245-0.613s0.108,0.197,0.294,0.592c0.191,0.412,0.461,0.997,0.813,1.758
					c0.365,0.769,0.869,1.694,1.434,2.802c0.634,1.07,1.3,2.344,2.2,3.687c3.452,5.427,9.43,12.844,18.788,19.664
					c4.649,3.424,10.116,6.662,16.273,9.528c6.156,2.872,13.009,5.334,20.366,7.387c3.68,1.026,7.487,1.95,11.4,2.78
					c3.912,0.827,7.937,1.563,12.026,2.345c8.178,1.555,16.664,3.072,25.412,4.229c8.742,1.144,17.346,1.803,25.656,1.701
					c8.31-0.144,16.291-1.194,23.67-3.195c7.396-1.913,14.289-4.237,20.621-6.7c6.332-2.468,12.112-5.075,17.242-7.737
					c10.298-5.262,18.016-10.65,22.974-14.788c2.443-2.113,4.315-3.792,5.464-5.049c0.587-0.599,1.039-1.059,1.357-1.383
					C474.416,246.151,474.584,246.001,474.584,246.001z"/>
			</g>
		</g>
	</g>
	<g>
		<g>
			<g>
				<g>
					<path style="fill:none;stroke:#4E585D;stroke-width:0.05;stroke-miterlimit:10;" d="M480.262,244.547"/>
				</g>
			</g>
		</g>
		<g>
			<g>
				<g>
					<path style="fill:#263238;" d="M493.409,268.683c0,0-0.086,0.164-0.272,0.473c-0.197,0.321-0.476,0.777-0.841,1.374
						c-0.757,1.219-1.864,3.002-3.301,5.315c-2.909,4.647-7.145,11.414-12.491,19.956l-0.046,0.074l-0.088,0
						c-0.846-0.003-1.81-0.007-2.791-0.01l-0.186-0.001l0.024-0.185c1.775-13.73,4.032-31.19,6.614-51.164l0.005-0.042l0.02-0.038
						c1.069-2.002,2.248-4.213,3.445-6.455l0.067-0.126l0.144,0c0.913-0.001,1.937-0.001,2.967-0.002l0.144,0l0.069,0.127
						c1.088,2.007,2.284,4.215,3.495,6.45l0.022,0.04l0.006,0.046c1.993,15.466,4.171,32.371,6.439,49.97
						c0.073,0.564,0.145,1.127,0.217,1.685l0.038,0.294h-0.296c-0.912,0-1.817,0-2.721,0h-0.144l-0.077-0.122
						c-5.855-9.355-11.553-18.459-17.019-27.191l-0.237-0.378l0.446-0.009c5.461-0.111,10.788-0.219,15.976-0.324l-0.11,0.461
						c-5.081-2.706-10.004-5.327-14.754-7.856l-0.365-0.194l0.355-0.211c4.538-2.7,8.877-5.281,13.04-7.756l-0.021,0.359
						c-3.885-3.003-7.551-5.837-11.041-8.535l-0.465-0.36l0.588,0.001c3.464,0.005,6.759,0.01,9.908,0.015l0.559,0.001l-0.449,0.332
						c-4.006,2.965-7.649,5.662-10.989,8.135l-0.012-0.262c5.066,3.123,9.332,5.751,12.936,7.972l0.173,0.106l-0.177,0.097
						c-4.917,2.701-8.694,4.776-11.257,6.184c-1.269,0.689-2.234,1.214-2.897,1.574c-0.652,0.35-0.991,0.514-0.991,0.514
						s0.319-0.201,0.96-0.569c0.657-0.372,1.612-0.914,2.868-1.627c2.551-1.43,6.309-3.538,11.202-6.283l-0.004,0.203
						c-3.615-2.202-7.895-4.808-12.978-7.903l-0.2-0.122l0.188-0.141c3.331-2.485,6.963-5.196,10.958-8.177l0.11,0.333
						c-3.15,0.005-6.444,0.01-9.908,0.015l0.122-0.359c3.497,2.689,7.171,5.514,11.063,8.507l0.254,0.195l-0.275,0.165
						c-4.158,2.484-8.491,5.074-13.024,7.782l-0.01-0.405c4.753,2.522,9.68,5.137,14.765,7.835l0.831,0.441l-0.941,0.02
						c-5.188,0.111-10.515,0.224-15.976,0.341l0.209-0.387c5.469,8.73,11.172,17.832,17.031,27.184l-0.22-0.122
						c0.903,0,1.809,0,2.721,0l-0.258,0.293c-0.072-0.558-0.144-1.121-0.217-1.685c-2.258-17.6-4.426-34.507-6.41-49.974
						l0.028,0.086c-1.208-2.236-2.402-4.445-3.487-6.454l0.212,0.126c-1.03-0.001-2.054-0.001-2.967-0.002l0.211-0.126
						c-1.2,2.24-2.383,4.449-3.455,6.449l0.026-0.08c-2.636,19.966-4.939,37.42-6.751,51.146l-0.162-0.185
						c0.981,0.008,1.944,0.016,2.791,0.022l-0.134,0.074c5.4-8.508,9.677-15.249,12.615-19.878c1.467-2.294,2.598-4.062,3.371-5.271
						c0.381-0.587,0.672-1.035,0.877-1.351C493.298,268.831,493.409,268.683,493.409,268.683z"/>
				</g>
			</g>
		</g>
		<g>
			<g>
				<g>
					<path style="fill:#263238;" d="M482.253,244.547c0,0.144-1.894,0.26-4.23,0.26c-0.938,0-1.805-0.019-2.499-0.051l0.176-0.096
						c-0.612,0.859-1.044,1.386-1.117,1.34c-0.072-0.047,0.232-0.657,0.765-1.568l0.053-0.09l0.124-0.006
						c0.693-0.032,1.56-0.051,2.499-0.051C480.359,244.286,482.253,244.403,482.253,244.547z"/>
				</g>
			</g>
		</g>
		<g>
			<g>
				<g>
					<path style="fill:#263238;" d="M488.023,244.547c0-0.144,1.894-0.26,4.23-0.26c0.938,0,1.805,0.019,2.499,0.051l0.124,0.006
						l0.053,0.09c0.533,0.91,0.837,1.521,0.764,1.568c-0.072,0.047-0.505-0.481-1.117-1.34l0.176,0.096
						c-0.693,0.032-1.56,0.051-2.499,0.051C489.917,244.807,488.023,244.691,488.023,244.547z"/>
				</g>
			</g>
		</g>
	</g>
	<g>
		<g>
			<g>
				<g>
					<path style="fill:none;stroke:#4E585D;stroke-width:0.05;stroke-miterlimit:10;" d="M579.103,265.173"/>
				</g>
			</g>
		</g>
		<g>
			<g>
				<g>
					<path style="fill:#263238;" d="M591.961,288.779c0,0-0.083,0.16-0.266,0.463c-0.192,0.315-0.465,0.761-0.821,1.344
						c-0.741,1.193-1.823,2.936-3.228,5.199c-2.845,4.546-6.987,11.165-12.215,19.519l-0.046,0.074l-0.088,0
						c-0.828-0.003-1.77-0.006-2.729-0.01l-0.186-0.001l0.024-0.185c1.735-13.429,3.942-30.505,6.467-50.039l0.005-0.042l0.02-0.038
						c1.045-1.958,2.199-4.12,3.369-6.313l0.068-0.126l0.143,0c0.893-0.001,1.895-0.001,2.902-0.002l0.144,0l0.069,0.127
						c1.064,1.963,2.234,4.122,3.419,6.308l0.022,0.04l0.006,0.046c1.949,15.126,4.08,31.66,6.297,48.872
						c0.071,0.551,0.142,1.102,0.212,1.648l0.038,0.294h-0.296c-0.892,0-1.778,0-2.661,0h-0.144l-0.076-0.122
						c-5.726-9.149-11.299-18.053-16.645-26.594l-0.237-0.378l0.446-0.009c5.341-0.108,10.551-0.214,15.625-0.317l-0.11,0.461
						c-4.969-2.646-9.784-5.21-14.43-7.684l-0.365-0.194l0.355-0.211c4.439-2.64,8.682-5.164,12.753-7.586l-0.021,0.359
						c-3.799-2.937-7.385-5.709-10.798-8.348l-0.465-0.36l0.588,0.001c3.388,0.005,6.61,0.01,9.69,0.015l0.56,0.001l-0.449,0.332
						c-3.918,2.9-7.481,5.538-10.748,7.956l-0.012-0.262c4.955,3.054,9.126,5.625,12.651,7.798l0.173,0.106l-0.177,0.097
						c-4.809,2.641-8.503,4.67-11.01,6.047c-1.24,0.674-2.185,1.186-2.834,1.539c-0.637,0.342-0.969,0.502-0.969,0.502
						s0.311-0.197,0.939-0.557c0.643-0.365,1.577-0.895,2.805-1.592c2.495-1.4,6.171-3.462,10.956-6.146l-0.004,0.203
						c-3.536-2.153-7.722-4.701-12.693-7.728l-0.2-0.122l0.188-0.141c3.257-2.431,6.81-5.082,10.717-7.998l0.11,0.333
						c-3.08,0.005-6.302,0.01-9.69,0.015l0.122-0.359c3.42,2.63,7.013,5.393,10.82,8.32l0.254,0.195l-0.275,0.165
						c-4.066,2.43-8.305,4.962-12.738,7.611l-0.01-0.405c4.649,2.467,9.468,5.023,14.441,7.662l0.831,0.441l-0.941,0.02
						c-5.074,0.108-10.284,0.219-15.625,0.333l0.209-0.387c5.349,8.538,10.927,17.44,16.657,26.586l-0.22-0.122
						c0.883,0,1.769,0,2.661,0l-0.258,0.293c-0.07-0.546-0.141-1.097-0.212-1.648c-2.208-17.213-4.329-33.748-6.269-48.875
						l0.028,0.086c-1.182-2.187-2.349-4.348-3.41-6.312l0.212,0.126c-1.007-0.001-2.009-0.001-2.902-0.002l0.211-0.126
						c-1.174,2.191-2.331,4.351-3.379,6.307l0.026-0.08c-2.578,19.527-4.832,36.598-6.604,50.022l-0.162-0.185
						c0.96,0.008,1.902,0.015,2.729,0.022l-0.134,0.074c5.281-8.321,9.466-14.913,12.339-19.441
						c1.435-2.243,2.541-3.971,3.298-5.155c0.372-0.573,0.657-1.012,0.858-1.321C591.853,288.924,591.961,288.779,591.961,288.779z"
						/>
				</g>
			</g>
		</g>
		<g>
			<g>
				<g>
					<path style="fill:#263238;" d="M581.05,265.173c0,0.144-1.852,0.26-4.137,0.26c-0.918,0-1.766-0.019-2.444-0.051l0.176-0.096
						c-0.599,0.839-1.024,1.355-1.096,1.308c-0.072-0.047,0.224-0.645,0.744-1.536l0.053-0.09l0.124-0.006
						c0.678-0.032,1.526-0.051,2.444-0.051C579.198,264.913,581.05,265.029,581.05,265.173z"/>
				</g>
			</g>
		</g>
		<g>
			<g>
				<g>
					<path style="fill:#263238;" d="M586.693,265.173c0-0.144,1.852-0.26,4.137-0.26c0.918,0,1.766,0.019,2.444,0.051l0.124,0.006
						l0.052,0.09c0.52,0.891,0.816,1.489,0.744,1.536c-0.072,0.047-0.496-0.469-1.096-1.308l0.176,0.096
						c-0.678,0.032-1.526,0.051-2.444,0.051C588.546,265.433,586.693,265.317,586.693,265.173z"/>
				</g>
			</g>
		</g>
	</g>
	<g>
		<g>
			<g>
				<path style="fill:#263238;" d="M220.489,228.824c0.018,0.002-0.003,0.264-0.06,0.762c-0.057,0.497-0.141,1.231-0.297,2.169
					c-0.293,1.878-0.799,4.589-1.678,7.878c-0.87,3.289-2.122,7.157-3.918,11.29c-1.83,4.108-4.166,8.531-7.47,12.584
					c-1.662,2.01-3.579,3.777-5.751,4.993c-2.163,1.233-4.566,1.826-6.84,1.877c-4.592,0.114-8.545-1.622-11.303-3.599
					c-2.79-2.004-4.563-4.179-5.693-5.7c-0.566-0.766-0.964-1.39-1.228-1.816c-0.258-0.43-0.385-0.66-0.37-0.669
					c0.015-0.01,0.173,0.202,0.458,0.612c0.291,0.406,0.714,1.008,1.302,1.751c1.172,1.474,2.973,3.589,5.743,5.521
					c2.738,1.907,6.618,3.558,11.077,3.421c2.21-0.065,4.516-0.644,6.605-1.842c2.098-1.182,3.966-2.904,5.601-4.882
					c3.255-3.992,5.592-8.377,7.432-12.445c1.809-4.095,3.09-7.931,4.002-11.194c0.92-3.262,1.48-5.952,1.834-7.815
					c0.163-0.894,0.294-1.609,0.393-2.15C220.416,229.079,220.472,228.822,220.489,228.824z"/>
			</g>
		</g>
	</g>
	<g>
		<g>
			<g>
				<path style="fill:#263238;" d="M574.01,265.884c0.006,0.017-0.272,0.132-0.81,0.335c-0.582,0.214-1.369,0.502-2.36,0.865
					c-1.018,0.4-2.305,0.758-3.795,1.191c-1.479,0.474-3.209,0.84-5.116,1.269c-3.827,0.766-8.461,1.423-13.639,1.414
					c-5.172,0.005-10.866-0.667-16.643-2.182c-11.588-3.103-20.938-9.009-26.952-13.937c-3.045-2.451-5.296-4.682-6.802-6.261
					c-0.746-0.797-1.308-1.433-1.672-1.877c-0.184-0.22-0.319-0.394-0.408-0.512c-0.089-0.118-0.129-0.183-0.122-0.188
					c0.015-0.012,0.216,0.212,0.608,0.63c0.389,0.421,0.973,1.032,1.739,1.805c1.545,1.531,3.826,3.712,6.886,6.115
					c6.047,4.833,15.361,10.644,26.856,13.721c5.732,1.503,11.377,2.184,16.51,2.205c5.14,0.035,9.748-0.579,13.565-1.295
					c1.902-0.403,3.63-0.742,5.111-1.188c1.492-0.405,2.784-0.733,3.809-1.103c1.002-0.324,1.798-0.581,2.387-0.772
					C573.712,265.949,574.003,265.867,574.01,265.884z"/>
			</g>
		</g>
	</g>
</g>
<g id="Hill">
	<g>
		<g>
			<g>
				<path style="fill:#455A64;" d="M102.571,315.416c0,0,40.318-31.73,75.391-31.243c35.073,0.487,35.569,4.884,52.23,1.638
					c16.662-3.246,65.147-30.059,130.69-23.501c65.542,6.557,83.078,26.374,123.584,28.269
					c68.684,3.214,84.006,25.116,84.006,25.116L102.571,315.416z"/>
			</g>
		</g>
		<g style="opacity:0.3;">
			<g>
				<path d="M102.571,315.416c0,0,40.318-31.73,75.391-31.243c35.073,0.487,35.569,4.884,52.23,1.638
					c16.662-3.246,65.147-30.059,130.69-23.501c65.542,6.557,83.078,26.374,123.584,28.269
					c68.684,3.214,84.006,25.116,84.006,25.116L102.571,315.416z"/>
			</g>
		</g>
	</g>
</g>
<g id="Windmills">
	<g>
		<g>
			<g>
				<polygon style="fill:#FF725E;" points="88.769,263.915 87.719,392.065 97.818,392.065 92.755,263.915 				"/>
			</g>
		</g>
		<g style="opacity:0.3;">
			<g>
				<path d="M88.707,271.474c0,0,1.945,1.082,4.348,0l-0.144-4.402l-4.125,0.506L88.707,271.474z"/>
			</g>
		</g>
		<g>
			<g>
				<g>
					<path style="fill:#FF725E;" d="M76.863,260.096c-1.48-0.078-41.462,8.252-45.114,9.357c-4.108,1.242-4.213,4.415-4.213,4.415
						l60.503-7.968l0.094-3.577l-7.186,0.887C80.947,263.21,78.343,260.174,76.863,260.096z"/>
				</g>
			</g>
			<g style="opacity:0.3;">
				<g>
					<path d="M31.749,269.452c-0.602,0.188-1.142,0.399-1.634,0.628l2.575-0.31l48.256-6.56c0,0-2.604-3.037-4.084-3.114
						C75.384,260.018,35.401,268.348,31.749,269.452z"/>
				</g>
			</g>
		</g>
		<g>
			<g>
				<g>
					<path style="fill:#FF725E;" d="M100.827,255.878c0.895-1.181,16.433-38.951,17.568-42.593c1.277-4.097-1.291-5.964-1.291-5.964
						l-27.352,54.552l2.908,2.085l3.298-6.446C95.958,257.51,99.932,257.059,100.827,255.878z"/>
				</g>
			</g>
			<g style="opacity:0.3;">
				<g>
					<path d="M118.395,213.284c0.182-0.604,0.31-1.169,0.397-1.705l-1.188,2.306L95.958,257.51c0,0,3.974-0.451,4.869-1.633
						C101.722,254.696,117.26,216.927,118.395,213.284z"/>
				</g>
			</g>
		</g>
		<g>
			<g>
				<g>
					<path style="fill:#FF725E;" d="M88.414,276.444c0.312,1.449,18.812,37.859,20.833,41.095c2.273,3.64,5.363,2.911,5.363,2.911
						l-23.518-56.311l-3.477,0.845l2.736,6.704C90.352,271.688,88.102,274.996,88.414,276.444z"/>
				</g>
			</g>
			<g style="opacity:0.3;">
				<g>
					<path d="M109.247,317.54c0.339,0.532,0.684,0.998,1.034,1.413l-0.973-2.404l-18.955-44.86c0,0-2.25,3.307-1.938,4.756
						C88.726,277.893,107.226,314.304,109.247,317.54z"/>
				</g>
			</g>
			<g>
				<g>
					<path style="fill:#263238;" d="M114.277,319.784c-0.052,0.024-5.168-12.252-11.425-27.415
						c-6.259-15.168-11.288-27.48-11.235-27.504c0.053-0.024,5.167,12.249,11.426,27.418
						C109.299,307.446,114.33,319.76,114.277,319.784z"/>
				</g>
			</g>
		</g>
		<g>
			<g>
				<g>
					<path style="fill:#FF725E;" d="M94.725,266.701c-2.031,2.175-5.441,2.292-7.617,0.261c-2.175-2.031-2.292-5.441-0.261-7.617
						c2.031-2.175,5.441-2.292,7.616-0.261C96.639,261.116,96.756,264.526,94.725,266.701z"/>
				</g>
			</g>
			<g>
				<g>
					<path style="fill:#263238;" d="M94.725,266.701c-0.024-0.018,0.332-0.348,0.743-1.094c0.402-0.733,0.821-1.973,0.56-3.478
						c-0.134-0.741-0.428-1.54-0.964-2.25c-0.535-0.702-1.273-1.352-2.199-1.729c-0.456-0.201-0.956-0.33-1.474-0.386
						c-0.517-0.064-1.056-0.047-1.587,0.059c-1.068,0.189-2.097,0.753-2.889,1.586c-0.777,0.847-1.269,1.913-1.385,2.991
						c-0.07,0.537-0.05,1.076,0.049,1.588c0.092,0.513,0.254,1.003,0.486,1.444c0.44,0.898,1.138,1.589,1.876,2.075
						c0.745,0.486,1.562,0.725,2.311,0.808c1.52,0.157,2.728-0.346,3.431-0.797C94.401,267.056,94.705,266.679,94.725,266.701
						c0,0-0.076,0.091-0.234,0.253c-0.077,0.083-0.177,0.181-0.309,0.282c-0.128,0.105-0.273,0.23-0.458,0.342
						c-0.701,0.475-1.924,1.01-3.484,0.867c-0.768-0.076-1.609-0.314-2.38-0.808c-0.762-0.494-1.486-1.202-1.945-2.127
						c-0.242-0.454-0.412-0.96-0.508-1.489c-0.104-0.528-0.127-1.085-0.056-1.641c0.117-1.116,0.626-2.221,1.43-3.097
						c0.819-0.862,1.886-1.444,2.991-1.638c0.549-0.109,1.106-0.124,1.64-0.057c0.535,0.06,1.051,0.195,1.52,0.405
						c0.954,0.394,1.71,1.068,2.255,1.795c0.546,0.735,0.841,1.558,0.97,2.319c0.25,1.546-0.2,2.803-0.626,3.535
						c-0.099,0.192-0.214,0.346-0.31,0.481c-0.091,0.138-0.183,0.245-0.26,0.328C94.81,266.619,94.725,266.701,94.725,266.701z"/>
				</g>
			</g>
		</g>
		<g>
			<g>
				<path style="fill:#FFFFFF;" d="M93.799,263.337c-0.182,1.674-1.686,2.883-3.359,2.702c-1.674-0.182-2.883-1.686-2.702-3.36
					c0.182-1.674,1.686-2.883,3.36-2.702C92.771,260.159,93.981,261.663,93.799,263.337z"/>
			</g>
		</g>
		<g>
			<g>
				<ellipse style="fill:#E0E0E0;" cx="92.769" cy="392.065" rx="5.05" ry="1.954"/>
			</g>
		</g>
	</g>
	<g>
		<g>
			<g>
				<polygon style="fill:#FF725E;" points="181.319,139.866 179.527,411.471 196.765,411.471 188.123,139.866 				"/>
			</g>
		</g>
		<g style="opacity:0.3;">
			<g>
				<path d="M181.212,152.769c0,0,3.321,1.847,7.421,0l-0.245-7.513l-7.041,0.864L181.212,152.769z"/>
			</g>
		</g>
		<g>
			<g>
				<g>
					<path style="fill:#FF725E;" d="M159.57,143.216c-2.373,0.877-59.427,40.931-64.407,45.128c-5.601,4.72-3.623,9.766-3.623,9.766
						l89.469-53.341l-2.268-5.671l-10.666,6.243C168.074,145.341,161.942,142.339,159.57,143.216z"/>
				</g>
			</g>
			<g style="opacity:0.3;">
				<g>
					<path d="M95.163,188.344c-0.816,0.701-1.521,1.397-2.138,2.087l3.828-2.225l71.221-42.865c0,0-6.132-3.002-8.504-2.125
						C157.197,144.093,100.142,184.147,95.163,188.344z"/>
				</g>
			</g>
		</g>
		<g>
			<g>
				<g>
					<path style="fill:#FF725E;" d="M194.288,120.424c0.605-2.456-0.537-72.157-1.216-78.634c-0.764-7.285-6.051-8.478-6.051-8.478
						l-6.048,103.987l5.967,1.304l0.817-12.332C187.757,126.271,193.683,122.88,194.288,120.424z"/>
				</g>
			</g>
			<g style="opacity:0.3;">
				<g>
					<path d="M193.072,41.79c-0.122-1.069-0.303-2.043-0.529-2.941l-0.306,4.417l-4.48,83.005c0,0,5.926-3.391,6.531-5.847
						C194.893,117.968,193.751,48.267,193.072,41.79z"/>
				</g>
			</g>
		</g>
		<g>
			<g>
				<g>
					<path style="fill:#FF725E;" d="M191.714,159.57c1.467,2.061,55.052,46.65,60.405,50.358c6.021,4.171,10.373,0.942,10.373,0.942
						l-74.888-72.399l-4.88,3.673l8.816,8.662C191.541,150.805,190.247,157.509,191.714,159.57z"/>
				</g>
			</g>
			<g style="opacity:0.3;">
				<g>
					<path d="M252.12,209.928c0.891,0.605,1.746,1.103,2.574,1.517l-3.149-3.112l-60.004-57.527c0,0-1.294,6.704,0.174,8.764
						C193.182,161.63,246.766,206.219,252.12,209.928z"/>
				</g>
			</g>
			<g>
				<g>
					<path style="fill:#263238;" d="M262.493,210.87c-0.069,0.072-16.62-15.809-36.961-35.466
						c-20.349-19.664-36.783-35.658-36.714-35.73c0.069-0.072,16.616,15.806,36.965,35.47
						C246.125,194.801,262.562,210.798,262.493,210.87z"/>
				</g>
			</g>
		</g>
		<g>
			<g>
				<g>
					<path style="fill:#FF725E;" d="M192.03,141.512c-1.715,4.782-6.982,7.267-11.764,5.552c-4.782-1.715-7.267-6.982-5.552-11.764
						c1.715-4.782,6.982-7.267,11.764-5.552C191.259,131.463,193.745,136.73,192.03,141.512z"/>
				</g>
			</g>
			<g>
				<g>
					<path style="fill:#263238;" d="M192.03,141.512c-0.049-0.013,0.286-0.769,0.426-2.217c0.135-1.421-0.045-3.647-1.471-5.831
						c-0.71-1.072-1.711-2.125-3.031-2.876c-1.313-0.739-2.908-1.26-4.614-1.226c-0.85-0.008-1.721,0.128-2.571,0.389
						c-0.854,0.249-1.687,0.639-2.448,1.164c-1.547,1.018-2.779,2.597-3.459,4.437c-0.646,1.852-0.699,3.855-0.152,5.625
						c0.253,0.889,0.649,1.72,1.149,2.455c0.49,0.742,1.076,1.401,1.737,1.935c1.296,1.111,2.858,1.723,4.341,1.987
						c1.497,0.259,2.939,0.082,4.168-0.294c2.489-0.78,4.043-2.384,4.841-3.566C191.761,142.287,191.983,141.49,192.03,141.512
						c0,0-0.057,0.194-0.197,0.554c-0.065,0.182-0.156,0.404-0.294,0.651c-0.13,0.251-0.273,0.546-0.487,0.846
						c-0.778,1.219-2.335,2.883-4.876,3.711c-1.255,0.399-2.735,0.594-4.277,0.34c-1.529-0.26-3.142-0.881-4.486-2.021
						c-0.685-0.549-1.294-1.227-1.802-1.991c-0.52-0.758-0.931-1.616-1.195-2.535c-0.57-1.829-0.519-3.904,0.15-5.82
						c0.702-1.903,1.982-3.538,3.583-4.587c0.788-0.542,1.651-0.942,2.534-1.196c0.878-0.267,1.779-0.404,2.657-0.392
						c1.762-0.026,3.402,0.52,4.747,1.291c1.352,0.784,2.371,1.875,3.086,2.981c1.436,2.254,1.58,4.529,1.406,5.964
						c-0.025,0.368-0.102,0.686-0.161,0.963c-0.05,0.279-0.121,0.507-0.187,0.689C192.109,141.326,192.03,141.512,192.03,141.512z"
						/>
				</g>
			</g>
		</g>
		<g>
			<g>
				<path style="fill:#EBEBEB;" d="M196.765,411.58c0,1.842-3.859,3.335-8.619,3.335c-4.76,0-8.619-1.493-8.619-3.335
					s3.859-3.336,8.619-3.336C192.906,408.245,196.765,409.738,196.765,411.58z"/>
			</g>
		</g>
		<g>
			<g>
				<path style="fill:#FFFFFF;" d="M188.446,138.132c0,2.825-2.29,5.116-5.116,5.116s-5.116-2.29-5.116-5.116
					s2.29-5.116,5.116-5.116S188.446,135.307,188.446,138.132z"/>
			</g>
		</g>
	</g>
</g>
<g id="House">
	<g>
		<g>
			<g>
				<polygon style="fill:#E0E0E0;" points="431.425,342.615 492.932,279.419 556.852,342.615 556.852,440.679 431.425,440.679 				
					"/>
			</g>
		</g>
		<g>
			<g>
				<rect x="556.852" y="342.615" style="fill:#E0E0E0;" width="153.277" height="98.063"/>
			</g>
		</g>
		<g>
			<g>
				<rect x="431.425" y="436.917" style="fill:#263238;" width="278.705" height="3.762"/>
			</g>
		</g>
		<g>
			<g>
				<rect x="475.921" y="386.407" style="fill:#455A64;" width="25.996" height="54.272"/>
			</g>
		</g>
		<g style="opacity:0.3;">
			<g>
				<polygon points="479.606,441.099 479.606,389.185 501.916,389.185 501.916,386.407 475.921,386.407 475.921,441.099 				"/>
			</g>
		</g>
		<g>
			<g>
				<rect x="473.311" y="332.135" style="fill:#455A64;" width="31.214" height="31.214"/>
			</g>
		</g>
		<g>
			<g>
				<g>
					<rect x="582.31" y="386.407" style="fill:#455A64;" width="25.996" height="54.272"/>
				</g>
			</g>
			<g style="opacity:0.3;">
				<g>
					<polygon style="fill:#FFFFFF;" points="582.31,421.381 608.306,407.671 608.306,386.407 582.31,386.407 					"/>
				</g>
			</g>
			<g style="opacity:0.3;">
				<g>
					<rect x="582.31" y="386.407" width="25.996" height="4.012"/>
				</g>
			</g>
		</g>
		<g>
			<g>
				<g>
					<rect x="612.628" y="386.407" style="fill:#455A64;" width="25.996" height="54.272"/>
				</g>
			</g>
			<g style="opacity:0.3;">
				<g>
					<polygon style="fill:#FFFFFF;" points="612.628,406.395 638.623,392.685 638.623,386.407 612.628,386.407 					"/>
				</g>
			</g>
			<g style="opacity:0.3;">
				<g>
					<rect x="612.628" y="386.407" width="25.996" height="4.012"/>
				</g>
			</g>
		</g>
		<g>
			<g>
				<g>
					<rect x="654.423" y="386.407" style="fill:#455A64;" width="25.996" height="54.272"/>
				</g>
			</g>
			<g style="opacity:0.3;">
				<g>
					<polygon style="fill:#FFFFFF;" points="654.423,400.117 680.419,386.407 680.419,386.407 654.423,386.407 					"/>
				</g>
			</g>
			<g style="opacity:0.3;">
				<g>
					<rect x="654.423" y="386.407" width="25.996" height="4.012"/>
				</g>
			</g>
		</g>
		<g>
			<g>
				<polygon style="fill:#FF725E;" points="556.852,342.615 710.129,342.615 654.423,279.419 492.932,279.419 				"/>
			</g>
		</g>
		<g style="opacity:0.3;">
			<g>
				<rect x="556.852" y="342.615" width="153.277" height="98.063"/>
			</g>
		</g>
		<g style="opacity:0.3;">
			<g>
				<polygon points="504.525,332.135 504.525,334.866 475.921,334.866 475.921,363.35 473.311,363.35 473.311,332.135 				"/>
			</g>
		</g>
		<g>
			<g>
				<g>
					<g>
						<g>
							<polygon style="fill:#E0E0E0;" points="526.237,281.678 574.347,332.135 680.541,332.135 680.541,326.562 631.144,274.345 
								526.237,274.345 							"/>
						</g>
					</g>
				</g>
				<g style="opacity:0.3;">
					<g>
						<g>
							<polygon points="526.237,274.345 575.814,325.975 680.541,326.562 680.541,332.135 574.347,332.135 526.237,281.678 							
								"/>
						</g>
					</g>
				</g>
			</g>
			<g>
				<g>
					<g>
						<polygon style="fill:#455A64;" points="536.913,277.776 579.889,321.465 670.186,321.897 629.344,277.731 						"/>
					</g>
				</g>
			</g>
			<g style="opacity:0.3;">
				<g>
					<g>
						<polygon style="fill:#FFFFFF;" points="601.512,277.741 563.26,304.561 574.776,316.267 629.344,277.731 						"/>
					</g>
				</g>
			</g>
			<g>
				<g>
					<g>
						<g>
							
								<rect x="587.396" y="267.12" transform="matrix(0.7213 -0.6926 0.6926 0.7213 -43.7717 491.395)" style="fill:#E0E0E0;" width="2.715" height="65.943"/>
						</g>
					</g>
				</g>
				<g>
					<g>
						<g>
							
								<rect x="618.122" y="266.844" transform="matrix(0.7213 -0.6926 0.6926 0.7213 -35.0178 512.6001)" style="fill:#E0E0E0;" width="2.715" height="65.943"/>
						</g>
					</g>
				</g>
				<g>
					<g>
						<g>
							<rect x="548.322" y="290.447" style="fill:#E0E0E0;" width="96.641" height="2.715"/>
						</g>
					</g>
				</g>
				<g>
					<g>
						<g>
							<rect x="562.566" y="306.692" style="fill:#E0E0E0;" width="96.638" height="2.715"/>
						</g>
					</g>
				</g>
			</g>
		</g>
	</g>
</g>
<g id="Car">
	<g>
		<g>
			<g>
				<g>
					<g>
						<g>
							
								<rect x="319.544" y="428.921" transform="matrix(-1 -1.224647e-16 1.224647e-16 -1 785.6381 878.8223)" style="fill:#FF725E;" width="146.549" height="20.981"/>
						</g>
					</g>
				</g>
				<g style="opacity:0.4;">
					<g>
						<g>
							
								<rect x="319.544" y="428.921" transform="matrix(-1 -1.224647e-16 1.224647e-16 -1 785.6381 878.8223)" width="146.549" height="20.981"/>
						</g>
					</g>
				</g>
				<g>
					<g>
						<g>
							<path style="fill:#FF725E;" d="M311.087,427.678c4.164-2.714,15.447-6.073,18.36-6.874
								c8.432-2.318,17.845-2.555,17.845-2.555l0,0c0,0,22.149-14.073,26.58-15.878c6.863-2.796,21.367-5.225,36.747-3.226
								c0,0,20.551,1.98,25.118,3.374c4.567,1.394,26.663,8.655,26.663,8.655s9.686,1.074,9.537,1.467c0,0-0.134,0.66-0.94,1.467
								v6.528c0,0,1.075,1.54,1.343,2.274c0.269,0.733,0.873,6.528,0.873,6.528s2.896,7.261,2.896,9.168
								c0,1.907-5.247,9.242-6.523,10.342c-1.276,1.1-11.583,2.704-11.583,2.704l0.018-5.491
								c-0.271-8.361-6.449-15.048-14.035-15.048c-7.586,0-13.764,6.687-14.036,15.048l-0.031,7.115h-79.276h-1.122l0.054-5.281
								c0.03-0.417,0.05-0.837,0.05-1.262c0-8.627-6.29-15.62-14.048-15.62c-7.759,0-14.049,6.993-14.049,15.62
								c0,0.425,0.02,0.845,0.05,1.262h-0.284v5.281h-9.268c0,0-7.522-6.088-7.321-9.169v-8.677c0-1.153,0.396-2.262,1.115-3.107
								C306.869,431.092,308.643,429.272,311.087,427.678z"/>
						</g>
					</g>
				</g>
				<g style="opacity:0.2;">
					<g>
						<g>
							<path d="M304.707,437.948l5.932-2.31l0.705,3.521l9.47-0.55c0,0,4.169-8.697,12.694-9.462
								c7.299-0.655,13.097,3.308,13.097,3.308l41.708-4.518c0,0,21.156-0.88,29.317-0.77c8.16,0.11,15.352,6.587,15.352,6.587
								s2.409-3.815,10.943-3.902c8.534-0.087,12.094,5.386,12.094,5.386c6.016-0.86,11.815-3.473,16.636-7.495l0.416,0.364
								c0.087,0.782,0.145,1.333,0.145,1.333s2.896,7.261,2.896,9.168c0,1.907-5.247,9.242-6.523,10.342
								c-1.276,1.1-11.583,2.704-11.583,2.704l0.018-5.491c-0.271-8.361-6.449-15.048-14.035-15.048
								c-7.586,0-13.764,6.687-14.036,15.048l-0.031,7.115h-79.276h-1.122l0.054-5.281c0.03-0.417,0.05-0.837,0.05-1.262
								c0-8.627-6.29-15.62-14.048-15.62c-7.759,0-14.049,6.993-14.049,15.62c0,0.425,0.02,0.845,0.05,1.262h-0.284v5.281h-9.268
								c0,0-7.522-6.088-7.321-9.169V437.948L304.707,437.948z"/>
						</g>
					</g>
				</g>
				<g>
					<g>
						<g>
							<path style="fill:#263238;" d="M445.243,411.649c0.668,0.561,0.405,1.79-0.41,1.917l-6.597,1.03l-37.482,4.834l-45.702,2.966
								c-0.733,0.048-1.463-0.32-1.87-1.034c-0.387-0.68-0.535-1.629,0.424-2.708c1.918-2.158,10.404-7.731,12.396-8.829
								c1.992-1.098,15.97-10.908,36.835-9.569c6.316,0.256,18.437,2.367,34.101,4.767c0.335,0.051,0.655,0.199,0.93,0.429
								L445.243,411.649z"/>
						</g>
					</g>
				</g>
				<g>
					<g>
						<g>
							<path style="fill:#455A64;" d="M437.45,413.807c-0.094-0.329-3.467-7.785-4.124-8.223
								c-0.656-0.439-27.928-4.495-28.302-3.947c-0.375,0.548-1.312,16.227-1.312,16.227L437.45,413.807z"/>
						</g>
					</g>
				</g>
				<g>
					<g>
						<g>
							<polygon style="fill:#263238;" points="427.057,404.444 427.295,415.387 425.888,415.387 425.888,404.261 							"/>
						</g>
					</g>
				</g>
				<g>
					<g>
						<g>
							<path style="fill:#455A64;" d="M399.827,401.586l-2.752,16.278l-29.82,2.478l-4.182-6.635c0,0,11.442-7.721,21.592-10.041
								C394.964,401.311,399.827,401.586,399.827,401.586z"/>
						</g>
					</g>
				</g>
				<g>
					<g>
						<g>
							<path style="fill:#EBEBEB;" d="M311.185,435.637c0,0,2.017-4.67,1.959-4.827c-0.311-0.837-1.795-3.298-1.795-3.298
								s-0.934,0.657-2.084,1.483c-1.283,0.921-2.519,2.242-3.594,3.43c-0.622,0.687-0.965,1.579-0.965,2.506l-0.003,3.912
								L311.185,435.637z"/>
						</g>
					</g>
				</g>
				<g>
					<g>
						<g>
							<path style="fill:#EBEBEB;" d="M470.999,414.109c0,0-13.994,1.251-13.839,1.588c0.154,0.337,13.839,4.94,13.839,4.94V414.109
								z"/>
						</g>
					</g>
				</g>
				<g>
					<g>
						<g>
							<g>
								<path style="fill:#263238;" d="M471.042,420.824c0.047,0,0.086-1.497,0.086-3.343c0-1.846-0.037-3.343-0.084-3.343
									s-0.086,1.496-0.086,3.343C470.957,419.327,470.995,420.824,471.042,420.824z"/>
							</g>
						</g>
					</g>
				</g>
				<g>
					<g>
						<g>
							<g>
								<path style="fill:#FF725E;" d="M369.348,412.938c0.657,1.348,1.378,3.341,1.244,5.408c-0.087,1.347-1.196,2.401-2.546,2.411
									l-6.284,0.047c-0.925,0.007-1.765-0.646-1.884-1.563c-0.039-0.299-0.004-0.623,0.16-0.956
									c0.653-1.331,1.198-1.078,1.198-1.078s1.902-3.926,4.795-5.415C367.243,411.167,368.751,411.712,369.348,412.938z"/>
							</g>
						</g>
					</g>
				</g>
				<g>
					<g>
						<g>
							<g>
								<g>
									<path style="fill:#263238;" d="M362.842,420.796c-0.01,0.024-0.249-0.045-0.571-0.277
										c-0.308-0.229-0.746-0.625-0.912-1.236c-0.16-0.594-0.127-1.137-0.128-1.519c0.007-0.385,0.026-0.624,0.056-0.625
										c0.03-0.001,0.065,0.236,0.098,0.62c0.039,0.383,0.035,0.919,0.184,1.465c0.144,0.541,0.527,0.925,0.799,1.176
										C362.649,420.65,362.857,420.766,362.842,420.796z"/>
								</g>
							</g>
						</g>
					</g>
				</g>
				<g>
					<g>
						<g>
							<g>
								<g>
									<path style="fill:#FFFFFF;" d="M362.368,416.378c-0.023-0.01,0.085-0.333,0.35-0.815c0.264-0.481,0.701-1.11,1.297-1.703
										c0.598-0.592,1.231-1.025,1.713-1.284c0.483-0.261,0.807-0.367,0.817-0.343c0.035,0.062-1.213,0.614-2.377,1.782
										C362.992,415.169,362.43,416.413,362.368,416.378z"/>
								</g>
							</g>
						</g>
					</g>
				</g>
				<g>
					<g>
						<g>
							<g>
								<path style="fill:#455A64;" d="M402.445,400.232c-0.005-0.001-0.021,0.065-0.046,0.191c-0.026,0.147-0.059,0.33-0.099,0.554
									c-0.082,0.482-0.195,1.181-0.328,2.047c-0.265,1.731-0.615,4.125-0.952,6.779c-0.337,2.655-0.595,5.067-0.726,6.82
									c-0.037,0.438-0.059,0.835-0.077,1.184c-0.019,0.349-0.036,0.649-0.037,0.896c-0.002,0.229-0.004,0.416-0.006,0.567
									c0,0.13,0.003,0.198,0.009,0.198c0.005,0,0.013-0.068,0.023-0.197c0.009-0.15,0.021-0.336,0.036-0.564
									c0.01-0.245,0.036-0.544,0.064-0.891c0.026-0.347,0.056-0.743,0.1-1.179c0.16-1.746,0.435-4.153,0.772-6.805
									c0.336-2.652,0.669-5.049,0.905-6.784c0.115-0.848,0.209-1.544,0.278-2.056c0.028-0.226,0.051-0.412,0.07-0.56
									C402.445,400.301,402.451,400.233,402.445,400.232z"/>
							</g>
						</g>
					</g>
				</g>
				<g style="opacity:0.2;">
					<g>
						<g>
							<path d="M470.999,420.637l-6.92-4.483l-0.2-1.363c-2.686,0.291-5.947,0.569-6.719,0.906
								C457.158,415.926,465.669,418.871,470.999,420.637z"/>
						</g>
					</g>
				</g>
				<g style="opacity:0.2;">
					<g>
						<g>
							<path d="M313.145,430.81l-4.038,3.429l-4.4,0.692l-0.003,3.912l6.482-3.205C311.982,433.777,312.711,432.038,313.145,430.81z
								"/>
						</g>
					</g>
				</g>
				<g>
					<g>
						<g>
							<g>
								<g>
									<g>
										<g>
											<g>
												<g>
													<g>
														<g>
															<g>
																<g>
																	<g>
																		<path style="fill:#263238;" d="M458.732,447.069c0.114,7.896-6.195,14.389-14.09,14.502
																			c-7.896,0.114-14.389-6.195-14.503-14.09c-0.114-7.896,6.195-14.389,14.09-14.503
																			C452.125,432.865,458.618,439.173,458.732,447.069z"/>
																	</g>
																</g>
															</g>
														</g>
													</g>
												</g>
											</g>
										</g>
									</g>
								</g>
							</g>
						</g>
					</g>
					<g>
						<g>
							<g>
								<g>
									<g>
										<g>
											<g>
												<g>
													<g>
														<g>
															<g>
																<g>
																	<g>
																		<path style="fill:#263238;" d="M458.729,447.032c0,0.012,0.002,0.024,0.003,0.037
																			c0.114,7.896-6.195,14.389-14.09,14.502c-7.896,0.114-14.389-6.195-14.503-14.09c0-0.013,0.001-0.025,0.001-0.037
																			L458.729,447.032z"/>
																	</g>
																</g>
															</g>
														</g>
													</g>
												</g>
											</g>
										</g>
									</g>
								</g>
							</g>
						</g>
					</g>
					<g>
						<g>
							<g>
								<g>
									<g>
										<g>
											<g>
												<g>
													<g>
														<g>
															<g>
																<g>
																	<g>
																		<path style="fill:#FAFAFA;" d="M454.472,447.13c0.08,5.543-4.349,10.102-9.892,10.182
																			c-5.544,0.08-10.102-4.349-10.182-9.892c-0.08-5.543,4.349-10.102,9.892-10.182
																			C449.834,437.158,454.392,441.587,454.472,447.13z"/>
																	</g>
																</g>
															</g>
														</g>
													</g>
												</g>
											</g>
										</g>
									</g>
								</g>
							</g>
						</g>
					</g>
					<g>
						<g>
							<g>
								<g>
									<g>
										<g>
											<g>
												<g>
													<g>
														<g>
															<g>
																<g>
																	<g>
																		<path style="fill:#E0E0E0;" d="M444.29,437.238c5.543-0.08,10.102,4.349,10.182,9.892l-20.074,0.29
																			C434.318,441.877,438.747,437.318,444.29,437.238z"/>
																	</g>
																</g>
															</g>
														</g>
													</g>
												</g>
											</g>
										</g>
									</g>
								</g>
							</g>
						</g>
					</g>
					<g>
						<g>
							<g>
								<g>
									<g>
										<g>
											<g>
												<g>
													<g>
														<g>
															<g>
																<g>
																	<g>
																		<path style="fill:#263238;" d="M450.549,447.187c0.049,3.377-2.649,6.154-6.026,6.202
																			c-3.377,0.049-6.154-2.649-6.202-6.026c-0.049-3.377,2.649-6.154,6.026-6.202
																			C447.723,441.112,450.5,443.81,450.549,447.187z"/>
																	</g>
																</g>
															</g>
														</g>
													</g>
												</g>
											</g>
										</g>
									</g>
								</g>
							</g>
						</g>
					</g>
				</g>
				<g>
					<g>
						<g>
							<g>
								<g>
									<g>
										<g>
											<g>
												<g>
													<g>
														<g>
															<g>
																<g>
																	<g>
																		<path style="fill:#263238;" d="M352.873,447.069c0.114,7.896-6.195,14.389-14.09,14.502
																			c-7.896,0.114-14.389-6.195-14.503-14.09c-0.114-7.896,6.195-14.389,14.09-14.503
																			C346.266,432.865,352.759,439.173,352.873,447.069z"/>
																	</g>
																</g>
															</g>
														</g>
													</g>
												</g>
											</g>
										</g>
									</g>
								</g>
							</g>
						</g>
					</g>
					<g>
						<g>
							<g>
								<g>
									<g>
										<g>
											<g>
												<g>
													<g>
														<g>
															<g>
																<g>
																	<g>
																		<path style="fill:#263238;" d="M352.87,447.032c0,0.012,0.002,0.024,0.003,0.037
																			c0.114,7.896-6.195,14.389-14.09,14.502c-7.896,0.114-14.389-6.195-14.503-14.09c0-0.013,0.001-0.025,0.001-0.037
																			L352.87,447.032z"/>
																	</g>
																</g>
															</g>
														</g>
													</g>
												</g>
											</g>
										</g>
									</g>
								</g>
							</g>
						</g>
					</g>
					<g>
						<g>
							<g>
								<g>
									<g>
										<g>
											<g>
												<g>
													<g>
														<g>
															<g>
																<g>
																	<g>
																		<path style="fill:#FAFAFA;" d="M348.613,447.13c0.08,5.543-4.349,10.102-9.892,10.182
																			c-5.543,0.08-10.102-4.349-10.182-9.892c-0.08-5.543,4.349-10.102,9.892-10.182
																			C343.975,437.158,348.534,441.587,348.613,447.13z"/>
																	</g>
																</g>
															</g>
														</g>
													</g>
												</g>
											</g>
										</g>
									</g>
								</g>
							</g>
						</g>
					</g>
					<g>
						<g>
							<g>
								<g>
									<g>
										<g>
											<g>
												<g>
													<g>
														<g>
															<g>
																<g>
																	<g>
																		<path style="fill:#E0E0E0;" d="M338.432,437.238c5.543-0.08,10.102,4.349,10.182,9.892l-20.074,0.29
																			C328.459,441.877,332.888,437.318,338.432,437.238z"/>
																	</g>
																</g>
															</g>
														</g>
													</g>
												</g>
											</g>
										</g>
									</g>
								</g>
							</g>
						</g>
					</g>
					<g>
						<g>
							<g>
								<g>
									<g>
										<g>
											<g>
												<g>
													<g>
														<g>
															<g>
																<g>
																	<g>
																		<path style="fill:#263238;" d="M344.69,447.187c0.049,3.377-2.649,6.154-6.026,6.202
																			c-3.377,0.049-6.154-2.649-6.203-6.026c-0.049-3.377,2.649-6.154,6.026-6.202
																			C341.865,441.112,344.642,443.81,344.69,447.187z"/>
																	</g>
																</g>
															</g>
														</g>
													</g>
												</g>
											</g>
										</g>
									</g>
								</g>
							</g>
						</g>
					</g>
				</g>
			</g>
			<g>
				<g>
					<g>
						<path style="fill:#263238;" d="M430.138,447.069c0,0.144-17.298,0.26-38.631,0.26c-21.341,0-38.635-0.116-38.635-0.26
							c0-0.144,17.294-0.26,38.635-0.26C412.841,446.809,430.138,446.925,430.138,447.069z"/>
					</g>
				</g>
			</g>
			<g>
				<g>
					<g>
						<path style="fill:#263238;" d="M400.369,447.032c-0.144,0-0.26-6.236-0.26-13.927c0-7.694,0.117-13.928,0.26-13.928
							c0.144,0,0.26,6.235,0.26,13.928C400.63,440.796,400.513,447.032,400.369,447.032z"/>
					</g>
				</g>
			</g>
			<g>
				<g>
					<g>
						<path style="fill:#263238;" d="M355.325,447.069c-0.145,0.025-0.161-2.144-1.409-5.296c-1.172-3.166-4.122-7.043-8.464-9.854
							c-1.088-0.715-2.212-1.346-3.319-1.832l-0.366-0.161l0.29-0.265c3.119-2.849,5.863-5.355,7.918-7.231
							c0.983-0.911,1.769-1.642,2.295-2.156c0.228-0.225,0.425-0.42,0.6-0.593c0.115-0.139,0.183-0.219,0.199-0.215
							c0.256,0.225-4.343,4.784-10.67,10.572l-0.076-0.425c1.168,0.505,2.297,1.138,3.413,1.869
							c4.428,2.864,7.415,6.888,8.521,10.155c0.145,0.402,0.284,0.788,0.417,1.156c0.089,0.374,0.173,0.729,0.253,1.067
							c0.076,0.327,0.147,0.636,0.215,0.927c0.031,0.283,0.06,0.548,0.087,0.796C355.325,446.54,355.36,447.067,355.325,447.069z"/>
					</g>
				</g>
			</g>
			<g style="opacity:0.3;">
				<g>
					<path d="M396.064,425.816h-4.395c-0.697,0-1.262-0.565-1.262-1.262V424.4c0-0.697,0.565-1.262,1.262-1.262h4.395
						c0.697,0,1.262,0.565,1.262,1.262v0.155C397.326,425.251,396.761,425.816,396.064,425.816z"/>
				</g>
			</g>
			<g style="opacity:0.3;">
				<g>
					<path d="M434.936,421.185l-4.334,0.733c-0.687,0.116-1.339-0.347-1.455-1.034l-0.026-0.152
						c-0.116-0.687,0.347-1.339,1.034-1.455l4.334-0.733c0.687-0.116,1.339,0.347,1.455,1.034l0.026,0.153
						C436.087,420.418,435.624,421.069,434.936,421.185z"/>
				</g>
			</g>
			<g>
				<g>
					<g>
						<path style="fill:#263238;" d="M427.295,447.275c-0.036-0.004,0.029-0.61,0.176-1.707c0.091-0.545,0.13-1.228,0.321-1.992
							c0.201-0.777,0.426-1.644,0.672-2.593c0.695-1.851,1.534-4.106,3.142-6.218c1.54-2.136,3.704-4.17,6.367-5.664
							c2.108-1.148,4.31-1.903,6.438-2.193l-0.196,0.361c-1.971-3.848-3.675-7.173-4.934-9.63c-0.563-1.14-1.026-2.076-1.385-2.802
							c-0.314-0.657-0.472-1.019-0.447-1.032c0.026-0.013,0.233,0.323,0.593,0.955c0.392,0.709,0.897,1.622,1.512,2.735
							c1.301,2.435,3.062,5.73,5.099,9.543l0.165,0.309l-0.361,0.052c-2.011,0.29-4.19,1.039-6.233,2.156
							c-2.594,1.456-4.706,3.421-6.232,5.492c-1.592,2.045-2.45,4.242-3.18,6.051c-0.27,0.93-0.516,1.779-0.737,2.541
							c-0.216,0.749-0.283,1.423-0.405,1.959C427.463,446.681,427.33,447.279,427.295,447.275z"/>
					</g>
				</g>
			</g>
		</g>
	</g>
</g>
<g id="Electric_Charge_Stations">
	<g>
		<g>
			<g>
				<g>
					<circle style="fill:#263238;" cx="459.794" cy="423.418" r="2.559"/>
				</g>
			</g>
			<g>
				<g>
					<path style="fill:#263238;" d="M465.186,431.461h-2v-6.279c0-0.681-0.395-1.155-0.749-1.155h-1.917v-2h1.917
						c1.516,0,2.749,1.415,2.749,3.155V431.461z"/>
				</g>
			</g>
		</g>
		<g>
			<g>
				<g>
					<path style="fill:#263238;" d="M526.389,414.272c0.091,6.564,0.181,13.128,0.271,19.692c0.045,3.24,0.089,6.481,0.134,9.721
						c0.023,1.662,0.046,3.324,0.069,4.985c0.02,1.479,0.212,3.188-0.489,4.55c-1.322,2.57-4.823,2.579-7.305,2.734
						c-2.961,0.185-5.924,0.324-8.889,0.421c-5.819,0.192-11.642,0.22-17.463,0.168c-5.988-0.053-11.976-0.186-17.964-0.297
						c-1.439-0.027-2.878-0.053-4.316-0.077c-1.466-0.024-3.526,0.309-4.846-0.415c-1.036-0.569-1.03-1.005-1.03-1.903
						c0-5.133,0-10.266,0-15.398c0-4.744,0-9.489,0-14.233c0-0.482-0.75-0.483-0.75,0c0,0.004,0,0.007,0,0.011
						c0,0.483,0.75,0.483,0.75,0c0-0.004,0-0.007,0-0.011c0-0.482-0.75-0.483-0.75,0c0,9.877,0,19.755,0,29.632
						c0,3.373,3.899,3.023,6.383,3.064c6.399,0.105,12.797,0.256,19.196,0.341c6.185,0.082,12.372,0.096,18.557-0.065
						c3.092-0.081,6.183-0.204,9.271-0.378c2.433-0.136,5.169-0.033,7.436-1.073c2.648-1.215,3.004-3.678,2.97-6.323
						c-0.05-3.905-0.108-7.81-0.162-11.716c-0.108-7.81-0.215-15.62-0.323-23.431C527.133,413.79,526.383,413.789,526.389,414.272
						L526.389,414.272z"/>
				</g>
			</g>
		</g>
		<g>
			<g>
				<g>
					<rect x="521.509" y="395.02" style="fill:#455A64;" width="27.247" height="27.247"/>
				</g>
			</g>
			<g style="opacity:0.3;">
				<g>
					<rect x="542.61" y="395.02" width="6.146" height="27.247"/>
				</g>
			</g>
		</g>
		<g>
			<g>
				<g>
					<polygon style="fill:#FFFFFF;" points="534.194,399.689 528.11,411.396 534.052,411.396 531.069,419.663 538.486,408.091 
						532.633,408.091 					"/>
				</g>
			</g>
		</g>
	</g>
</g>
<g id="Light_bulb">
	<g>
		<g>
			<g>
				<g>
					<g>
						<g>
							<g>
								<g>
									<g>
										<g>
											<g>
												<g>
													<g>
														<g>
															<g>
																<g>
																	<g>
																		<path style="fill:#F5F5F5;" d="M474.89,199.68c1.444-55.906-42.105-101.236-97.271-101.246
																			c-55.166-0.01-101.058,45.302-102.503,101.208c-1.045,40.476,21.502,75.394,54.96,91.597
																			c-0.019,0.742,0.706,25.538,0.706,25.538l86.182,0.017c0,0,0.899-14.333,1.425-27.126
																			C450.99,272.858,473.877,238.887,474.89,199.68z"/>
																	</g>
																</g>
																<g>
																	<g>
																		<g>
																			<path style="fill:#263238;" d="M474.89,199.68c0,0-0.093,2.671-0.447,7.74
																				c-0.597,5.036-1.562,12.519-4.536,21.712c-1.538,4.566-3.414,9.609-6.122,14.816
																				c-2.561,5.28-5.997,10.68-10.083,16.163c-1.058,1.345-2.135,2.712-3.229,4.103
																				c-1.182,1.317-2.383,2.655-3.604,4.015l-0.919,1.023c-0.316,0.335-0.656,0.648-0.985,0.975
																				c-0.664,0.648-1.332,1.301-2.006,1.959c-0.674,0.658-1.353,1.32-2.038,1.987
																				c-0.726,0.622-1.457,1.248-2.193,1.879c-5.856,5.076-12.611,9.817-20.251,13.784l0.104-0.163
																				c-0.444,8.551-0.916,17.651-1.409,27.131l-0.01,0.197h-0.199c-25.945,0.006-54.987,0.012-86.182,0.019l-0.238,0
																				l-0.007-0.238c-0.224-8.027-0.466-16.717-0.712-25.551l0.142,0.232c-6.291-3.136-12.385-6.938-18.108-11.428
																				c-5.694-4.529-10.895-9.83-15.576-15.657c-4.712-5.813-8.686-12.332-11.93-19.258l-1.232-2.597
																				c-0.39-0.876-0.708-1.784-1.067-2.676l-1.049-2.691l-0.525-1.348c-0.167-0.452-0.292-0.92-0.44-1.38
																				c-0.57-1.846-1.142-3.697-1.715-5.551c-0.44-1.89-0.88-3.784-1.321-5.682c-0.378-1.423-0.544-2.884-0.784-4.329
																				c-0.226-1.447-0.451-2.893-0.676-4.336c-0.121-1.455-0.242-2.908-0.362-4.359
																				c-0.102-1.452-0.296-2.897-0.263-4.35c-0.17-5.803,0.075-11.575,0.826-17.251
																				c0.722-5.68,2.004-11.236,3.633-16.627c1.659-5.382,3.665-10.622,6.15-15.577
																				c9.778-19.939,25.581-35.752,43.395-45.563c4.473-2.429,9.039-4.557,13.689-6.29
																				c4.665-1.684,9.36-3.098,14.082-4.093c1.172-0.283,2.365-0.445,3.54-0.672c1.177-0.216,2.35-0.433,3.532-0.56
																				c1.178-0.15,2.352-0.3,3.522-0.45c1.175-0.091,2.346-0.182,3.512-0.272l1.746-0.129l1.743-0.044
																				c1.16-0.026,2.315-0.053,3.466-0.079c1.15,0.03,2.296,0.06,3.437,0.09l1.707,0.052l1.696,0.132
																				c1.128,0.09,2.251,0.18,3.37,0.269c1.112,0.145,2.22,0.289,3.323,0.432l1.65,0.22l1.63,0.298
																				c1.084,0.199,2.163,0.397,3.237,0.595c1.063,0.251,2.121,0.501,3.174,0.749l1.575,0.372l1.547,0.45
																				c1.029,0.299,2.053,0.597,3.072,0.893c1.003,0.346,2.001,0.691,2.994,1.033
																				c7.944,2.759,15.133,6.558,21.525,10.832c1.63,1.026,3.119,2.213,4.642,3.31c1.503,1.124,2.907,2.34,4.336,3.483
																				c1.351,1.235,2.725,2.41,4.006,3.648c1.247,1.273,2.553,2.456,3.701,3.755
																				c4.735,5.065,8.656,10.334,11.863,15.533c6.451,10.41,9.948,20.492,11.959,28.831
																				c2.022,8.367,2.516,15.074,2.662,19.587c0.064,1.13,0.091,2.126,0.069,2.986
																				c-0.006,0.857-0.011,1.578-0.015,2.16C474.908,199.087,474.89,199.68,474.89,199.68s-0.017-0.594-0.025-1.753
																				c-0.003-0.582-0.007-1.302-0.011-2.159c0.014-0.859-0.022-1.854-0.095-2.983
																				c-0.18-4.507-0.707-11.201-2.755-19.543c-2.037-8.314-5.554-18.361-12.01-28.725
																				c-3.209-5.177-7.129-10.42-11.857-15.46c-1.147-1.292-2.451-2.468-3.695-3.735
																				c-1.279-1.232-2.65-2.4-3.998-3.628c-1.427-1.136-2.827-2.345-4.326-3.463c-1.52-1.09-3.005-2.271-4.63-3.29
																				c-6.375-4.247-13.54-8.021-21.454-10.758c-0.989-0.34-1.983-0.682-2.983-1.025
																				c-1.015-0.294-2.035-0.589-3.06-0.886l-1.541-0.446l-1.569-0.369c-1.049-0.246-2.102-0.494-3.161-0.743
																				c-1.07-0.195-2.144-0.391-3.224-0.589l-1.623-0.295l-1.643-0.217c-1.098-0.142-2.201-0.284-3.309-0.426
																				c-1.113-0.088-2.232-0.176-3.355-0.265l-1.689-0.13l-1.7-0.05c-1.136-0.029-2.277-0.058-3.422-0.087
																				c-1.145,0.027-2.296,0.055-3.45,0.082l-1.736,0.045l-1.738,0.13c-1.161,0.091-2.326,0.182-3.496,0.274
																				c-1.164,0.15-2.332,0.3-3.505,0.451c-1.177,0.127-2.344,0.345-3.516,0.561c-1.169,0.227-2.357,0.389-3.523,0.672
																				c-4.699,0.994-9.372,2.405-14.014,4.085c-4.627,1.729-9.171,3.85-13.621,6.27
																				c-17.724,9.776-33.445,25.524-43.169,45.368c-2.472,4.931-4.466,10.146-6.116,15.502
																				c-1.62,5.365-2.895,10.894-3.612,16.545c-0.746,5.648-0.99,11.392-0.82,17.166
																				c-0.033,1.446,0.16,2.883,0.262,4.328c0.12,1.443,0.24,2.889,0.36,4.337c0.224,1.436,0.448,2.873,0.673,4.313
																				c0.238,1.437,0.403,2.891,0.78,4.306c0.439,1.888,0.877,3.772,1.314,5.653c0.57,1.844,1.139,3.685,1.706,5.522
																				c0.147,0.457,0.271,0.922,0.437,1.372l0.522,1.341l1.043,2.677c0.356,0.887,0.673,1.79,1.061,2.662l1.225,2.583
																				c3.227,6.89,7.178,13.375,11.864,19.158c4.655,5.797,9.827,11.071,15.489,15.578
																				c5.691,4.468,11.752,8.252,18.009,11.375l0.137,0.068l0.004,0.164c0.242,8.825,0.48,17.505,0.699,25.524
																				l-0.245-0.238c31.194,0.019,60.237,0.036,86.182,0.052l-0.209,0.196c0.504-9.477,0.988-18.573,1.442-27.121
																				l0.006-0.112l0.098-0.051c7.617-3.942,14.356-8.655,20.201-13.705c0.735-0.627,1.465-1.25,2.189-1.869
																				c0.683-0.664,1.361-1.323,2.034-1.977c0.673-0.655,1.341-1.305,2.004-1.949c0.328-0.325,0.668-0.637,0.984-0.97
																				l0.918-1.018c1.219-1.353,2.42-2.685,3.601-3.996c1.094-1.384,2.17-2.746,3.228-4.084
																				c4.085-5.458,7.525-10.836,10.093-16.095c2.715-5.187,4.602-10.212,6.152-14.764
																				c2.999-9.164,3.997-16.63,4.629-21.657c0.226-2.527,0.307-4.465,0.409-5.763
																				C474.831,200.346,474.89,199.68,474.89,199.68z"/>
																		</g>
																	</g>
																</g>
															</g>
														</g>
													</g>
												</g>
											</g>
										</g>
									</g>
								</g>
							</g>
						</g>
						<g>
							<g id="_x32_gGvdE.tif_00000005255312143328988520000017637476125395066030_">
								<g>
									<g>
										<g>
											<g>
												<g>
													<path style="fill:#455A64;" d="M353.251,364.306c0,0,3.524,2.358,5.585,5.136c1.071,1.444,2.788,2.245,4.592,2.244
														l17.618-0.01c1.975-0.001,3.858-0.98,5.001-2.642c1.339-1.947,3.711-4.247,6.141-4.751L353.251,364.306z"/>
												</g>
											</g>
										</g>
									</g>
								</g>
							</g>
							<g>
								<g>
									<g>
										<g>
											<g>
												<path style="fill:#455A64;" d="M335.425,314.602c-0.009,0.359,3.379,28.244,4.676,38.906
													c0.532,4.377,3.101,8.268,7.03,10.099c1.434,0.669,3.097,1.113,4.986,1.112c7.551-0.005,38.535-0.023,38.535-0.023
													s10.071-0.006,12.556-8.103c2.617-8.523,8.006-42.036,8.006-42.036L335.425,314.602z"/>
											</g>
										</g>
									</g>
								</g>
							</g>
							<g>
								<g>
									<g>
										<g>
											<g>
												<g>
													<path style="fill:#455A64;" d="M408.042,351.298l-69.98,0.292c-1.055,0.005-1.891-0.858-1.868-1.927l0.004-0.212
														c0.023-1.068,0.897-1.938,1.952-1.943l69.981-0.291c1.054-0.004,1.891,0.859,1.867,1.928l-0.004,0.211
														C409.971,350.425,409.098,351.294,408.042,351.298z"/>
												</g>
											</g>
										</g>
									</g>
								</g>
							</g>
							<g>
								<g>
									<g>
										<g>
											<g>
												<g>
													<path style="fill:#455A64;" d="M409.169,342.513l-71.793,0.298c-1.055,0.005-1.891-0.858-1.868-1.927l0.005-0.212
														c0.023-1.068,0.897-1.939,1.951-1.943l71.794-0.298c1.055-0.005,1.891,0.858,1.867,1.926l-0.004,0.212
														C411.098,341.639,410.224,342.509,409.169,342.513z"/>
												</g>
											</g>
										</g>
									</g>
								</g>
							</g>
							<g>
								<g>
									<g>
										<g>
											<g>
												<path style="fill:#455A64;" d="M325.537,298.405c-0.018,0.723,1.141,17.804,1.741,26.57
													c0.024,0.358,0.067,0.712,0.126,1.06c0.591,3.467,3.144,6.284,6.385,7.65l4.115,1.734l68.44-0.04l7.765-2.546
													c2.755-1.778,4.574-4.728,4.928-7.987l2.877-26.497L325.537,298.405z"/>
											</g>
										</g>
									</g>
								</g>
							</g>
							<g style="opacity:0.3;">
								<g>
									<g>
										<g>
											<g>
												<g>
													<path d="M339.327,351.375c7.695,1.642,15.404,1.776,23.897,1.735c6.857-0.033,13.576,0.141,21.024-0.008
														c5.456-0.109,10.481-0.37,15.924-0.595c2.756-0.113,5.787-0.77,6.353-1.291L339.327,351.375z"/>
												</g>
											</g>
										</g>
									</g>
								</g>
							</g>
							<g style="opacity:0.3;">
								<g>
									<g>
										<g>
											<g>
												<g>
													<path d="M339.546,342.656c7.695,1.642,15.404,1.775,23.897,1.735c6.857-0.033,13.576,0.141,21.023-0.008
														c5.456-0.109,10.482-0.37,15.926-0.594c2.755-0.113,5.786-0.77,6.352-1.291L339.546,342.656z"/>
												</g>
											</g>
										</g>
									</g>
								</g>
							</g>
							<g>
								<g>
									<g>
										<g>
											<g>
												<g>
													<path style="fill:#263238;" d="M417.124,328.483c-0.004,0.182-19.937,0.341-44.515,0.356
														c-24.586,0.014-44.507-0.121-44.503-0.304c0.004-0.182,19.933-0.341,44.52-0.355
														C397.204,328.165,417.129,328.301,417.124,328.483z"/>
												</g>
											</g>
										</g>
									</g>
								</g>
							</g>
							<g>
								<g>
									<g>
										<g>
											<g>
												<g>
													<path style="fill:#263238;" d="M421.95,298.362c0.003,0.205-21.632,0.406-48.317,0.45
														c-26.694,0.044-48.057-0.202-48.06-0.407c-0.002-0.205,21.355-0.293,48.05-0.335
														C400.307,298.026,421.947,298.157,421.95,298.362z"/>
												</g>
											</g>
										</g>
									</g>
								</g>
							</g>
							<g>
								<g>
									<g>
										<path style="fill:#263238;" d="M407.317,335.3c0.001,0.144-15.531,0.34-34.686,0.438
											c-19.162,0.098-34.692,0.061-34.693-0.083s15.528-0.34,34.69-0.438C391.783,335.119,407.316,335.156,407.317,335.3z"/>
									</g>
								</g>
							</g>
						</g>
					</g>
				</g>
			</g>
			<g>
				<g>
					<g>
						<path style="fill:#263238;" d="M301.608,261.309c-0.014,0.011-0.175-0.171-0.468-0.528c-0.322-0.402-0.742-0.927-1.264-1.58
							c-0.553-0.684-1.211-1.535-1.915-2.567c-0.712-1.026-1.566-2.166-2.381-3.512c-0.421-0.666-0.861-1.363-1.318-2.087
							c-0.454-0.728-0.873-1.518-1.335-2.319c-0.945-1.592-1.81-3.37-2.749-5.227c-1.785-3.757-3.53-7.995-4.994-12.571
							c-1.427-4.589-2.429-9.062-3.124-13.164c-0.296-2.06-0.608-4.012-0.748-5.859c-0.081-0.921-0.191-1.808-0.237-2.666
							c-0.041-0.856-0.08-1.679-0.118-2.466c-0.105-1.57-0.059-2.994-0.064-4.242c-0.015-1.249,0.035-2.323,0.096-3.201
							c0.053-0.835,0.096-1.505,0.129-2.019c0.035-0.461,0.062-0.702,0.08-0.701c0.018,0.001,0.026,0.245,0.024,0.707
							c-0.008,0.514-0.018,1.185-0.031,2.02c-0.029,0.876-0.05,1.948-0.007,3.193c0.033,1.245,0.013,2.663,0.141,4.225
							c0.048,0.783,0.099,1.602,0.151,2.454c0.056,0.853,0.176,1.735,0.266,2.651c0.157,1.836,0.484,3.777,0.791,5.824
							c0.717,4.077,1.728,8.522,3.147,13.086c1.456,4.551,3.178,8.77,4.93,12.52c0.923,1.853,1.769,3.63,2.693,5.224
							c0.452,0.802,0.86,1.593,1.303,2.324c0.446,0.728,0.874,1.427,1.284,2.096c0.792,1.353,1.622,2.503,2.309,3.542
							c0.679,1.044,1.311,1.911,1.838,2.612c0.49,0.677,0.883,1.22,1.185,1.637C301.489,261.093,301.622,261.297,301.608,261.309z"
							/>
					</g>
				</g>
			</g>
			<g>
				<g>
					<g>
						<path style="fill:#263238;" d="M311.302,271.143c-0.101,0.102-1.307-0.926-2.694-2.296c-1.387-1.371-2.429-2.564-2.328-2.666
							c0.101-0.102,1.307,0.926,2.694,2.296C310.361,269.847,311.404,271.041,311.302,271.143z"/>
					</g>
				</g>
			</g>
		</g>
		<g>
			<g>
				<g>
					<g>
						<g>
							<path style="fill:#455A64;" d="M373.687,256.163c-12.71-21.437-11.221-51.902,0.899-73.677
								c12.12-21.775,33.558-37.398,56.971-45.937c10.404,28.755,14.406,49.385,1.95,77.312
								c-4.863,10.903-18.467,23.807-28.311,30.561C395.352,251.176,380.05,254.382,373.687,256.163"/>
						</g>
					</g>
				</g>
				<g>
					<g>
						<g>
							<path style="fill:#455A64;" d="M357.441,265.609c-13.966,1.525-30.484-5.815-38.834-17.113
								c-8.35-11.298-11.37-25.943-10.293-39.951c17.184,1.365,28.706,4.121,40.135,17.026c4.462,5.038,7.913,15.029,9.084,21.656
								C358.704,253.854,358.01,261.928,357.441,265.609"/>
						</g>
					</g>
				</g>
				<g>
					<g>
						<g>
							<path style="fill:#263238;" d="M365.793,285.167c0,0,1.181-6.73,4.514-17.239c1.624-5.265,3.88-11.429,6.547-18.205
								c2.691-6.768,5.904-14.103,9.419-21.734c7.084-15.246,14.074-28.761,19.118-38.546c2.526-4.861,4.575-8.805,6.011-11.568
								c0.705-1.337,1.259-2.387,1.654-3.135c0.183-0.335,0.328-0.602,0.442-0.809c0.102-0.181,0.158-0.272,0.166-0.268
								c0.008,0.004-0.032,0.103-0.119,0.292c-0.101,0.213-0.232,0.488-0.396,0.833c-0.374,0.759-0.898,1.824-1.566,3.18
								c-1.401,2.781-3.4,6.751-5.864,11.644c-4.959,9.827-11.896,23.365-18.973,38.597c-3.512,7.624-6.735,14.944-9.447,21.693
								c-2.687,6.757-4.975,12.897-6.642,18.139c-0.425,1.307-0.829,2.552-1.213,3.731c-0.343,1.189-0.666,2.311-0.97,3.362
								c-0.611,2.098-1.139,3.905-1.48,5.405c-0.369,1.466-0.659,2.617-0.865,3.436c-0.098,0.369-0.177,0.663-0.238,0.891
								C365.835,285.068,365.802,285.169,365.793,285.167z"/>
						</g>
					</g>
				</g>
			</g>
			<g>
				<g>
					<g>
						<path style="fill:#263238;" d="M414.67,209.138c0.021,0.086-1.583,0.493-4.106,1.353c-2.523,0.857-5.946,2.232-9.515,4.175
							c-3.566,1.952-6.574,4.089-8.659,5.747c-2.088,1.657-3.298,2.786-3.359,2.722c-0.025-0.026,0.255-0.332,0.783-0.864
							c0.523-0.537,1.322-1.273,2.343-2.143c2.038-1.743,5.043-3.949,8.643-5.92c3.603-1.962,7.083-3.296,9.651-4.069
							c1.284-0.388,2.335-0.662,3.07-0.812C414.253,209.173,414.662,209.103,414.67,209.138z"/>
					</g>
				</g>
			</g>
		</g>
		<g style="opacity:0.2;">
			<g>
				<g>
					<g>
						<g>
							<path style="fill:#FFFFFF;" d="M356.809,128.133c-0.024-4.296,2.871-8.731,7.02-12.291
								c5.934-5.092,16.443-7.227,24.954-6.601c21.72,1.596,33.468,6.309,50.735,25.153c5.38,5.871,9.783,18.269,9.221,26.755
								c-0.283,4.266-2.08,8.391-5.359,11.159c-8.528,7.198-20.193,1.221-26.978-6.45c-6.323-7.151-11.309-16.197-20.018-20.06
								c-7.175-3.183-15.5-2.181-23.288-3.377C365.308,141.224,356.853,136.142,356.809,128.133z"/>
						</g>
					</g>
				</g>
			</g>
		</g>
		<g style="opacity:0.2;">
			<g>
				<g>
					<g>
						<g>
							<path style="fill:#FFFFFF;" d="M435.731,194.114c2.329-6.62,10.394-10.834,15.748-9.608c4.409,1.149,8.25,4.378,9.927,8.652
								c2.021,5.151,0.593,11.619-3.546,15.429c-4.139,3.811-10.738,4.587-15.378,1.677
								C437.844,207.355,433.862,199.426,435.731,194.114z"/>
						</g>
					</g>
				</g>
			</g>
		</g>
		<g>
			<g>
				<g>
					<path style="fill:#263238;" d="M367.442,278.256c-0.014,0.011-0.171-0.176-0.456-0.542c-0.312-0.411-0.72-0.947-1.227-1.615
						c-1.053-1.412-2.549-3.476-4.374-6.042c-3.664-5.122-8.604-12.283-14.376-19.954c-5.744-7.697-11.343-14.355-15.595-18.99
						c-2.14-2.304-3.889-4.155-5.146-5.386c-0.587-0.598-1.059-1.078-1.42-1.446c-0.321-0.335-0.484-0.517-0.471-0.53
						c0.012-0.013,0.199,0.144,0.543,0.454c0.379,0.35,0.874,0.808,1.49,1.377c1.302,1.188,3.095,3.003,5.274,5.28
						c4.33,4.58,9.989,11.219,15.741,18.927c5.781,7.684,10.676,14.881,14.261,20.056c1.763,2.553,3.202,4.637,4.237,6.135
						c0.475,0.691,0.856,1.247,1.148,1.672C367.328,278.038,367.457,278.246,367.442,278.256z"/>
				</g>
			</g>
		</g>
		<g>
			<g>
				<g>
					<path style="fill:#263238;" d="M462.779,178.441c-0.009,0.001-0.032-0.08-0.07-0.24c-0.041-0.19-0.091-0.424-0.152-0.712
						c-0.13-0.668-0.309-1.584-0.535-2.742c-0.113-0.6-0.238-1.261-0.374-1.982c-0.159-0.72-0.387-1.489-0.6-2.323
						c-0.46-1.658-0.866-3.58-1.629-5.611c-0.349-1.026-0.715-2.099-1.096-3.217c-0.39-1.115-0.918-2.229-1.396-3.408
						c-0.915-2.38-2.202-4.779-3.485-7.337c-2.759-5.012-6.214-10.295-10.449-15.37c-4.299-5.023-8.934-9.311-13.417-12.867
						c-2.308-1.691-4.46-3.36-6.654-4.659c-1.083-0.668-2.093-1.375-3.128-1.944c-1.039-0.562-2.036-1.101-2.99-1.617
						c-1.875-1.09-3.703-1.811-5.261-2.541c-0.786-0.349-1.507-0.702-2.19-0.978c-0.688-0.254-1.319-0.487-1.892-0.699
						c-1.104-0.416-1.977-0.744-2.614-0.984c-0.273-0.108-0.495-0.197-0.676-0.269c-0.152-0.063-0.228-0.1-0.225-0.109
						c0.003-0.008,0.084,0.011,0.241,0.058c0.185,0.059,0.413,0.131,0.693,0.22c0.646,0.218,1.532,0.516,2.651,0.893
						c0.579,0.199,1.217,0.419,1.913,0.658c0.691,0.264,1.419,0.604,2.214,0.942c1.575,0.707,3.421,1.407,5.316,2.481
						c0.963,0.508,1.97,1.041,3.02,1.595c1.045,0.564,2.066,1.265,3.159,1.928c2.215,1.29,4.388,2.954,6.717,4.644
						c4.523,3.555,9.197,7.858,13.521,12.911c4.26,5.104,7.724,10.428,10.474,15.479c1.278,2.578,2.557,4.997,3.46,7.396
						c0.472,1.189,0.993,2.312,1.375,3.436c0.372,1.127,0.728,2.209,1.069,3.243c0.743,2.047,1.127,3.984,1.561,5.655
						c0.2,0.84,0.415,1.615,0.56,2.34c0.12,0.726,0.23,1.393,0.33,1.997c0.185,1.167,0.332,2.09,0.439,2.763
						c0.041,0.291,0.074,0.527,0.101,0.72C462.782,178.356,462.788,178.44,462.779,178.441z"/>
				</g>
			</g>
		</g>
	</g>
</g>
<g id="Solar_Panels">
	<g>
		<g>
			<g>
				<g>
					<rect x="58.247" y="433.873" style="fill:#E0E0E0;" width="4.452" height="14.057"/>
				</g>
			</g>
			<g>
				<g>
					<rect x="53.853" y="446.439" style="fill:#E0E0E0;" width="13.241" height="3.635"/>
				</g>
			</g>
		</g>
		<g>
			<g>
				<g>
					<rect x="130.148" y="434.304" style="fill:#E0E0E0;" width="4.452" height="14.057"/>
				</g>
			</g>
			<g>
				<g>
					<rect x="125.754" y="446.87" style="fill:#E0E0E0;" width="13.241" height="3.635"/>
				</g>
			</g>
		</g>
		<g>
			<g>
				<g>
					<rect x="92.145" y="396.526" style="fill:#263238;" width="4.452" height="43.948"/>
				</g>
			</g>
			<g>
				<g>
					<rect x="87.751" y="438.983" style="fill:#263238;" width="13.241" height="3.635"/>
				</g>
			</g>
		</g>
		<g>
			<g>
				<g>
					<rect x="164.095" y="362.415" style="fill:#E0E0E0;" width="4.452" height="78.059"/>
				</g>
			</g>
			<g>
				<g>
					<rect x="159.701" y="438.983" style="fill:#E0E0E0;" width="13.241" height="3.635"/>
				</g>
			</g>
		</g>
		<g>
			<g>
				<polygon style="fill:#E0E0E0;" points="41.762,435.376 41.762,430.075 72.396,357.675 169.181,357.675 170.553,363.041 
					144.536,435.376 				"/>
			</g>
		</g>
		<g>
			<g>
				<polygon style="fill:#455A64;" points="49.392,424.939 75.335,363.625 160.543,363.625 138.488,424.939 				"/>
			</g>
		</g>
		<g style="opacity:0.3;">
			<g>
				<path style="fill:#FFFFFF;" d="M150.542,363.625c-0.574,0-89.128,32.9-89.128,32.9l-8.812,20.826l101.661-36.269l6.28-17.458
					H150.542z"/>
			</g>
		</g>
		<g style="opacity:0.3;">
			<g>
				<polygon style="fill:#FFFFFF;" points="49.392,424.939 151.551,388.623 149.881,393.265 58.602,424.939 				"/>
			</g>
		</g>
		<g style="opacity:0.3;">
			<g>
				<polygon points="41.762,430.075 142.2,430.43 169.181,357.675 170.553,363.041 144.536,435.376 41.762,435.376 				"/>
			</g>
		</g>
		<g>
			<g>
				<g>
					<path style="fill:#E0E0E0;" d="M66.793,383.731c23.57,0,47.141,0,70.711,0c6.687,0,13.375,0,20.062,0
						c2.118,0,2.121-3.291,0-3.291c-23.57,0-47.141,0-70.711,0c-6.687,0-13.375,0-20.062,0
						C64.675,380.44,64.672,383.731,66.793,383.731L66.793,383.731z"/>
				</g>
			</g>
		</g>
		<g>
			<g>
				<g>
					<path style="fill:#E0E0E0;" d="M57.274,406.058c23.57,0,47.141,0,70.711,0c6.687,0,13.375,0,20.062,0
						c2.118,0,2.121-3.292,0-3.292c-23.57,0-47.141,0-70.711,0c-6.687,0-13.375,0-20.062,0
						C55.156,402.767,55.153,406.058,57.274,406.058L57.274,406.058z"/>
				</g>
			</g>
		</g>
		<g>
			<g>
				<g>
					<path style="fill:#E0E0E0;" d="M79.238,429.211c3.005-7.707,6.009-15.414,9.014-23.121
						c4.767-12.227,9.534-24.455,14.301-36.682c1.1-2.821,2.2-5.642,3.299-8.463c0.77-1.975-2.412-2.83-3.174-0.875
						c-3.005,7.707-6.009,15.414-9.014,23.121c-4.767,12.227-9.534,24.455-14.301,36.682c-1.1,2.821-2.2,5.642-3.299,8.463
						C75.294,430.31,78.476,431.166,79.238,429.211L79.238,429.211z"/>
				</g>
			</g>
		</g>
		<g>
			<g>
				<g>
					<path style="fill:#E0E0E0;" d="M109.348,428.24c2.922-7.496,5.845-14.992,8.767-22.489c4.635-11.89,9.271-23.78,13.906-35.671
						c1.069-2.742,2.138-5.484,3.207-8.226c0.77-1.974-2.412-2.83-3.174-0.875c-2.922,7.496-5.845,14.992-8.767,22.489
						c-4.635,11.89-9.271,23.78-13.907,35.671c-1.069,2.742-2.138,5.484-3.207,8.226C105.404,429.34,108.586,430.195,109.348,428.24
						L109.348,428.24z"/>
				</g>
			</g>
		</g>
	</g>
	<g>
		<g>
			<g>
				<g>
					<rect x="173.373" y="434.435" style="fill:#E0E0E0;" width="4.488" height="14.17"/>
				</g>
			</g>
			<g>
				<g>
					<rect x="168.943" y="447.102" style="fill:#E0E0E0;" width="13.347" height="3.664"/>
				</g>
			</g>
		</g>
		<g>
			<g>
				<g>
					<rect x="245.853" y="434.87" style="fill:#E0E0E0;" width="4.488" height="14.17"/>
				</g>
			</g>
			<g>
				<g>
					<rect x="241.423" y="447.537" style="fill:#E0E0E0;" width="13.347" height="3.664"/>
				</g>
			</g>
		</g>
		<g>
			<g>
				<g>
					<rect x="207.544" y="396.787" style="fill:#263238;" width="4.488" height="44.302"/>
				</g>
			</g>
			<g>
				<g>
					<rect x="203.114" y="439.587" style="fill:#263238;" width="13.347" height="3.664"/>
				</g>
			</g>
		</g>
		<g>
			<g>
				<g>
					<rect x="280.073" y="362.402" style="fill:#E0E0E0;" width="4.488" height="78.687"/>
				</g>
			</g>
			<g>
				<g>
					<rect x="275.643" y="439.587" style="fill:#E0E0E0;" width="13.347" height="3.664"/>
				</g>
			</g>
		</g>
		<g>
			<g>
				<polygon style="fill:#E0E0E0;" points="156.755,435.951 156.755,430.607 187.635,357.624 285.2,357.624 286.583,363.033 
					260.357,435.951 				"/>
			</g>
		</g>
		<g>
			<g>
				<polygon style="fill:#455A64;" points="164.446,425.429 190.598,363.622 276.492,363.622 254.26,425.429 				"/>
			</g>
		</g>
		<g style="opacity:0.3;">
			<g>
				<path style="fill:#FFFFFF;" d="M266.41,363.622c-0.579,0-89.845,33.165-89.845,33.165l-8.883,20.994l102.48-36.561l6.33-17.598
					H266.41z"/>
			</g>
		</g>
		<g style="opacity:0.3;">
			<g>
				<polygon style="fill:#FFFFFF;" points="164.446,425.429 267.428,388.821 265.745,393.5 173.73,425.429 				"/>
			</g>
		</g>
		<g style="opacity:0.3;">
			<g>
				<polygon points="156.755,430.607 258.001,430.964 285.2,357.624 286.583,363.033 260.357,435.951 156.755,435.951 				"/>
			</g>
		</g>
		<g>
			<g>
				<g>
					<path style="fill:#E0E0E0;" d="M181.988,383.89c23.76,0,47.52,0,71.28,0c6.741,0,13.483,0,20.224,0
						c2.135,0,2.139-3.318,0-3.318c-23.76,0-47.52,0-71.28,0c-6.741,0-13.482,0-20.224,0
						C179.853,380.572,179.85,383.89,181.988,383.89L181.988,383.89z"/>
				</g>
			</g>
		</g>
		<g>
			<g>
				<g>
					<path style="fill:#E0E0E0;" d="M172.392,406.397c23.76,0,47.52,0,71.28,0c6.741,0,13.482,0,20.224,0
						c2.135,0,2.138-3.318,0-3.318c-23.76,0-47.52,0-71.28,0c-6.741,0-13.482,0-20.224,0
						C170.257,403.079,170.254,406.397,172.392,406.397L172.392,406.397z"/>
				</g>
			</g>
		</g>
		<g>
			<g>
				<g>
					<path style="fill:#E0E0E0;" d="M194.533,429.736c3.029-7.769,6.058-15.538,9.086-23.307
						c4.805-12.326,9.611-24.651,14.416-36.977c1.109-2.844,2.217-5.687,3.326-8.531c0.776-1.99-2.431-2.853-3.199-0.882
						c-3.029,7.769-6.058,15.538-9.086,23.307c-4.805,12.326-9.611,24.651-14.416,36.977c-1.109,2.844-2.217,5.687-3.326,8.531
						C190.557,430.844,193.764,431.707,194.533,429.736L194.533,429.736z"/>
				</g>
			</g>
		</g>
		<g>
			<g>
				<g>
					<path style="fill:#E0E0E0;" d="M224.885,428.757c2.946-7.556,5.892-15.113,8.838-22.67
						c4.673-11.986,9.346-23.972,14.018-35.958c1.077-2.764,2.155-5.528,3.233-8.292c0.776-1.99-2.431-2.853-3.199-0.882
						c-2.946,7.557-5.892,15.113-8.838,22.67c-4.673,11.986-9.346,23.972-14.018,35.958c-1.078,2.764-2.155,5.528-3.233,8.292
						C220.91,429.865,224.117,430.728,224.885,428.757L224.885,428.757z"/>
				</g>
			</g>
		</g>
	</g>
</g>
<g id="Sun">
	<g>
		<g>
			<g style="opacity:0.8;">
				<g>
					
						<ellipse transform="matrix(0.9726 -0.2326 0.2326 0.9726 -12.3318 136.0502)" style="fill-rule:evenodd;clip-rule:evenodd;fill:#FF725E;" cx="570.777" cy="120.32" rx="56.821" ry="56.821"/>
				</g>
			</g>
			<g style="opacity:0.8;">
				<g>
					
						<ellipse transform="matrix(0.9726 -0.2326 0.2326 0.9726 -12.3318 136.0502)" style="fill-rule:evenodd;clip-rule:evenodd;fill:#FFFFFF;" cx="570.777" cy="120.32" rx="56.821" ry="56.821"/>
				</g>
			</g>
		</g>
		<g>
			<g>
				<g>
					<circle style="fill-rule:evenodd;clip-rule:evenodd;fill:#FF725E;" cx="570.777" cy="120.32" r="50.675"/>
				</g>
			</g>
			<g style="opacity:0.6;">
				<g>
					<circle style="fill-rule:evenodd;clip-rule:evenodd;fill:#FFFFFF;" cx="570.777" cy="120.32" r="50.675"/>
				</g>
			</g>
		</g>
		<g>
			<g>
				<g>
					
						<ellipse transform="matrix(0.1769 -0.9842 0.9842 0.1769 351.3937 660.8146)" style="fill-rule:evenodd;clip-rule:evenodd;fill:#FF725E;" cx="570.777" cy="120.32" rx="42.167" ry="42.167"/>
				</g>
			</g>
			<g style="opacity:0.3;">
				<g>
					
						<ellipse transform="matrix(0.1769 -0.9842 0.9842 0.1769 351.3937 660.8146)" style="fill-rule:evenodd;clip-rule:evenodd;fill:#FFFFFF;" cx="570.777" cy="120.32" rx="42.167" ry="42.167"/>
				</g>
			</g>
		</g>
		<g>
			<g>
				
					<ellipse transform="matrix(0.0551 -0.9985 0.9985 0.0551 419.194 683.6015)" style="fill-rule:evenodd;clip-rule:evenodd;fill:#FF725E;" cx="570.777" cy="120.32" rx="33.763" ry="33.762"/>
			</g>
		</g>
	</g>
</g>
</svg>
